<svg width="115" height="100" viewBox="0 0 115 100" fill="none" xmlns="http://www.w3.org/2000/svg">
<path d="M28.9124 0.0939331L21.3989 26.5787C27.3471 25.2013 39.9947 22.1458 43 20.9437C46.7567 19.441 92.0251 32.5895 87.517 43.6718C83.009 54.7541 61.5957 53.6271 54.6458 53.6271C49.5743 54.3784 30.415 70.7201 24.4043 77.2943C19.5957 82.5537 9.50269 91.2568 5.05725 94.9509H34.9231C33.9839 94.3247 32.8193 90.5931 35.6744 80.6754C38.5295 70.7576 42.8748 67.7773 44.6905 67.5269C55.0215 67.6521 76.4723 67.8274 79.6279 67.5269C83.5725 67.1512 93.3399 64.5215 99.7263 59.0743C106.113 53.6271 118.134 41.4177 112.875 20.9437C108.667 4.56442 93.4652 0.219157 86.39 0.0939331H28.9124Z" fill="url(#paint0_linear_132_2064)" stroke="black" stroke-width="0.187835"/>
<path d="M99.7264 59.075C93.34 64.5222 83.5725 67.1519 79.628 67.5276C76.4723 67.8281 55.0215 67.6528 44.6905 67.5276C44.3387 67.5761 43.8918 67.7271 43.3792 68.0113C43.2536 68.0861 43.1273 68.1619 43.0001 68.2388C40.8734 69.6099 37.8438 73.1405 35.6744 80.676C32.8193 90.5938 33.9839 94.3254 34.9231 94.9515H5.05725C9.50269 91.2574 36.9018 71.9261 43 68.2388C43 68.2388 43.0001 68.2388 43.0001 68.2388C43.13 68.1551 43.2565 68.0794 43.3792 68.0113C51.2291 63.3387 55.9861 62.8317 61.0322 62.8317C73.8051 62.8317 91.2793 62.1713 101.98 56.8209C102.732 56.4453 102.794 56.6957 99.7264 59.075Z" fill="url(#paint1_linear_132_2064)"/>
<path d="M33.6077 42.5456C29.6632 40.8549 18.08 51.3113 15.9512 52.8766L28.5361 37.4741C33.9834 37.2862 42.8728 46.517 33.6077 42.5456Z" fill="#073AA1" stroke="black" stroke-width="0.187835"/>
<path d="M30.4112 26.9558L23.0856 28.0828L38.3003 19.0667L67.9783 33.3422C55.4559 39.2277 33.642 48.5569 32.2895 46.3029C30.9371 44.0488 27.5936 41.3565 28.7207 38.9773L16.5114 50.9987L27.4058 35.2206L19.8924 36.3476L22.3343 33.3422L30.4112 26.9558Z" fill="#020E26" stroke="black" stroke-width="0.187835"/>
<path d="M39.368 26.6368L39.6757 27.1153L40.2411 27.0645C40.9379 27.0019 41.6316 27.0348 42.3046 27.1553L42.8641 27.2549L43.2128 26.8057L44.0673 25.7012L45.9257 26.5684L45.6298 27.9327L45.5096 28.4883L45.9462 28.8526C46.4713 29.291 46.9421 29.8014 47.3417 30.3751L47.6669 30.8419L48.2303 30.7696L49.6132 30.5938L50.3153 32.5196L49.1425 33.2755L48.6649 33.5831L48.7157 34.1495C48.7782 34.846 48.7454 35.5399 48.6249 36.213L48.5243 36.7725L48.9735 37.1202L50.077 37.9747L49.2098 39.8331L47.8466 39.5381L47.2909 39.418L46.9266 39.8536C46.4883 40.3787 45.978 40.8496 45.4042 41.2491L44.9384 41.5743L45.0096 42.1378L45.1844 43.5225L43.2587 44.2237L42.5038 43.0508L42.1962 42.5733L41.6298 42.6241C40.9335 42.6866 40.2402 42.6537 39.5673 42.5333L39.0067 42.4327L38.6591 42.8819L37.8036 43.9854L35.9452 43.1182L36.2421 41.7549L36.3622 41.1993L35.9257 40.835C35.4006 40.3968 34.9298 39.8864 34.5302 39.3126L34.2059 38.8467L33.6415 38.918L32.2567 39.0928L31.5555 37.1661L32.7294 36.4122L33.2069 36.1046L33.1561 35.5381C33.0936 34.8415 33.1263 34.1485 33.2469 33.4756L33.3475 32.9151L32.8983 32.5674L31.7938 31.712L32.661 29.8536L34.0253 30.1495L34.5809 30.2706L34.9452 29.834C35.3835 29.309 35.8939 28.8382 36.4677 28.4385L36.9335 28.1133L36.8622 27.5499L36.6854 26.1651L38.6132 25.4639L39.368 26.6368ZM45.5487 33.1641C44.6517 30.7004 41.9278 29.4297 39.4637 30.3262C36.9995 31.2231 35.7289 33.9481 36.6259 36.4122C37.5227 38.8763 40.2468 40.1468 42.7108 39.2501C45.1751 38.3532 46.4457 35.6282 45.5487 33.1641Z" stroke="#083081" stroke-width="1.87835"/>
<path d="M33.9837 37.6605C34.7351 36.9092 38.1787 34.9682 39.8066 34.0917C39.8692 34.2795 40.1822 34.9182 40.9336 35.97C40.3325 35.8198 36.5508 39.1632 34.7351 40.8538C34.1716 40.1024 33.2324 38.4119 33.9837 37.6605Z" fill="#C6C4FF" stroke="black" stroke-width="0.187835"/>
<path d="M35.1087 37.849C35.86 37.0977 37.6132 35.9081 39.2411 35.0315C39.3037 35.2193 39.2412 34.731 39.9925 35.7828C39.3914 35.6326 36.9245 38.0369 35.1088 39.7274C34.5453 38.976 34.3573 38.6004 35.1087 37.849Z" fill="#1850BE" fill-opacity="0.5"/>
<path d="M38.1147 29.0206C38.265 28.5698 39.8052 29.4588 40.5566 29.9597L41.4958 33.3408L35.485 35.5948L34.358 33.9043C35.2346 33.2156 36.9501 31.7254 36.7999 31.2746C36.612 30.7111 37.9269 29.5841 38.1147 29.0206Z" fill="url(#paint2_linear_132_2064)" stroke="black" stroke-width="0.187835"/>
<path d="M38.4917 29.9593C38.642 29.5085 39.6187 29.8341 40.3701 30.335L41.3092 32.589L36.4255 34.6552L36.2377 33.5282C37.1142 32.8395 37.515 32.1007 37.3647 31.6498C37.1768 31.0863 38.3039 30.5228 38.4917 29.9593Z" fill="#083081"/>
<path d="M47.8828 16.8111C39.1673 16.3603 26.5948 23.1349 21.398 26.5786C20.8346 28.0812 20.958 27.7056 20.8346 28.0812C20.4914 29.1259 20.2477 29.6281 19.8954 30.7109C21.2102 30.8988 45.0653 4.03828 53.1423 31.2744C52.6328 32.8944 11.5608 53.2512 9.37656 63.0186C3.66549 81.5375 1.27366 92.4666 2.80229 94.9507C21.398 75.4158 27.2209 71.6591 44.5018 58.1349C61.7826 44.6108 72.4893 41.9811 77.9365 41.2297C83.3837 40.4784 88.6431 43.6716 88.4553 48.7431C97.8471 38.2243 87.1404 29.5839 81.5054 26.5785C80.0027 20.0043 71.7379 16.2476 62.7218 14.1814C53.7057 12.1153 40.1816 14.5571 39.2424 14.9328C38.3032 15.3085 38.8667 15.3085 39.0546 15.3085C39.2424 15.3085 45.2531 15.6841 47.8828 16.8111Z" fill="url(#paint3_linear_132_2064)" stroke="black" stroke-width="0.375671"/>
<path d="M11.0669 59.8267C17.9792 51.8625 36.9882 40.4797 45.6286 35.7838C46.3173 34.8446 48.5588 32.8536 52.015 32.4028C55.4712 31.9519 54.0812 33.968 52.9542 35.0324C45.8164 41.1058 30.2261 54.1165 24.9667 57.5727C19.7073 61.0289 10.3781 69.2811 6.37097 72.9752C7.12231 69.5316 9.11337 62.0808 11.0669 59.8267Z" fill="url(#paint4_linear_132_2064)" stroke="black" stroke-width="0.375671"/>
<path d="M11.0669 59.8267C17.9792 51.8625 36.9882 40.4797 45.6286 35.7838C46.3173 34.8446 48.5588 32.8536 52.015 32.4028C55.4712 31.9519 54.0812 33.968 52.9542 35.0324C45.8164 41.1058 10.1277 59.8267 15.7627 60.7659C16.7019 61.7051 10.3781 69.2811 6.37097 72.9752C7.12231 69.5316 9.11337 62.0808 11.0669 59.8267Z" fill="#8E8BFF"/>
<path d="M76.2466 31.3346C77.3736 33.1507 82.633 36.2184 87.7045 37.2199C77.1858 40.9766 68.5453 32.3361 67.2305 28.2037C68.7958 27.7654 74.4502 28.4399 76.2466 31.3346Z" fill="url(#paint5_linear_132_2064)" stroke="black" stroke-width="0.187835"/>
<path d="M38.8659 62.6436C52.6906 45.9638 62.9089 39.9155 70.6102 38.0371C70.2345 37.411 62.7571 35.8823 61.9698 36.3466C54.6442 40.6668 25.7801 55.9441 6.37045 73.9137C5.61906 76.1677 2.23807 94.5756 0.171875 99.2715C9.75149 88.9405 16.5135 80.3001 38.8659 62.6436Z" fill="url(#paint6_linear_132_2064)" stroke="black" stroke-width="0.375671"/>
<path d="M9.56378 75.2283C10.7659 73.5753 18.6425 67.0888 22.3366 64.146C21.147 67.2766 18.7302 76.9564 18.5799 79.3607C17.6783 79.8115 10.4403 87.0619 6.93408 90.6308C7.37236 87.0619 8.36163 76.8812 9.56378 75.2283Z" fill="#083081"/>
<path d="M25.1525 53.6273C30.4119 47.6166 45.2512 38.0369 52.7643 32.7775C56.208 30.8992 63.1704 31.2749 58.9628 37.2856C36.6104 52.5003 25.716 65.8366 19.1418 77.1068C18.7661 71.6595 22.4767 56.6854 25.1525 53.6273Z" fill="url(#paint7_linear_132_2064)" stroke="black" stroke-width="1.12701"/>
<g filter="url(#filter0_d_132_2064)">
<path d="M19.1431 77.1067C18.7674 71.6595 25.1075 57.2489 27.7834 54.1908C28.5468 53.3183 30.0375 54.7543 30.601 54.5665C36.6119 48.3658 47.094 38.9641 53.5166 34.4681C56.9603 32.5897 63.1716 31.2748 58.9641 37.2856C36.6117 52.5002 25.7173 65.8366 19.1431 77.1067Z" fill="url(#paint8_linear_132_2064)"/>
</g>
<g filter="url(#filter1_d_132_2064)">
<path d="M49.762 34.0915C51.2646 32.5888 51.8282 32.0253 51.0768 27.8929C51.4525 26.8911 52.88 24.6997 55.5849 23.9484C58.9659 23.0092 76.8103 31.0862 80.1913 38.9752C77.1859 41.6049 59.5294 36.3456 55.397 39.3509C53.3308 38.2239 52.2038 35.4064 49.762 34.0915Z" fill="url(#paint9_linear_132_2064)"/>
<path d="M52.2038 27.7051C52.016 27.7677 51.5276 27.8929 51.0768 27.8929M51.0768 27.8929C51.8282 32.0253 51.2646 32.5888 49.762 34.0915C52.2038 35.4064 53.3308 38.2239 55.397 39.3509C59.5294 36.3456 77.1859 41.6049 80.1913 38.9752C76.8103 31.0862 58.9659 23.0092 55.5849 23.9484C52.88 24.6997 51.4525 26.8911 51.0768 27.8929Z" stroke="black" stroke-width="0.751342"/>
</g>
<path d="M19.8982 30.8997C26.8252 24.7011 33.7591 20.5607 37.1794 19.8175L40.1126 22.0753C33.6102 24.7011 33.9859 25.0767 33.0467 23.9497C30.417 25.0767 23.4668 27.7065 19.8982 30.8997Z" fill="url(#paint10_linear_132_2064)" stroke="black" stroke-width="0.187835"/>
<path d="M48.4112 17.0684C50.4776 17.4441 50.6654 17.6319 52.5438 18.5711C54.2343 19.6981 54.4221 19.6981 55.5491 21.2008C60.4329 15.5658 74.3326 23.267 76.5867 29.2777C77.3381 31.1561 77.1502 30.5926 77.5259 32.0953C82.9067 33.2281 89.3595 37.9182 88.9837 49.0005C98.3755 38.4817 87.6688 29.8412 82.0338 26.8359C80.5311 20.2616 72.2663 16.505 63.2502 14.4388C54.2341 12.3726 40.71 14.8144 39.7708 15.1901C38.8316 15.5658 39.3951 15.5658 39.583 15.5658H39.583C39.7708 15.5658 45.5963 16.5567 48.4112 17.0684Z" fill="url(#paint11_linear_132_2064)" stroke="black" stroke-width="0.375671"/>
<g filter="url(#filter2_d_132_2064)">
<path d="M50.3251 31.8375C51.8278 30.3348 50.7007 30.7105 51.0764 27.8929C51.1606 27.6685 51.2976 27.3842 51.4899 27.0699C52.156 25.9814 53.4857 24.5314 55.5845 23.9484C58.9655 23.0092 76.8099 31.0862 80.1909 38.9752C77.1856 41.6049 60.4682 33.7159 56.3358 36.7212C54.2696 35.5942 54.0818 32.401 50.3251 31.8375Z" fill="url(#paint12_linear_132_2064)"/>
<path d="M51.6399 26.5781C51.4521 26.6407 51.5272 27.8929 51.0764 27.8929M51.0764 27.8929C50.7007 30.7105 51.8278 30.3348 50.3251 31.8375C54.0818 32.401 54.2696 35.5942 56.3358 36.7212C60.4682 33.7159 77.1856 41.6049 80.1909 38.9752C76.8099 31.0862 58.9655 23.0092 55.5845 23.9484C52.8796 24.6997 51.4521 26.8911 51.0764 27.8929Z" stroke="black" stroke-width="0.751342"/>
</g>
<path d="M74.1787 32.4014C76.7333 34.6554 83.9463 37.6607 88.2665 37.6607C75.8693 44.235 61.0301 31.65 62.7207 24.3244C64.286 23.8861 71.6242 30.1474 74.1787 32.4014Z" fill="url(#paint13_linear_132_2064)" stroke="black" stroke-width="0.375671"/>
<path d="M73.4326 32.0257C72.1178 31.8379 71.3665 31.65 69.8638 31.2744C75.1232 37.2851 85.0784 37.8486 86.5811 37.2851C83.9514 38.0364 75.6867 34.4676 73.4326 32.0257Z" fill="url(#paint14_linear_132_2064)"/>
<path d="M26.6604 12.3038C30.7176 15.9102 44.5048 17.4379 50.8912 17.751C58.4046 15.0462 67.5459 21.8208 66.8572 26.0158C65.7302 26.454 53.9717 28.1947 50.5155 27.8941C47.0593 27.5936 42.689 28.395 40.9359 28.8333C38.9949 26.6419 33.4225 20.268 26.6604 12.3038Z" fill="url(#paint15_linear_132_2064)" stroke="black" stroke-width="0.375671"/>
<path d="M39.8093 34.1086L41.8099 33.3402C43.0881 34.0062 45.411 35.3074 44.4774 35.1844C43.5438 35.0615 42.1989 36.1577 41.6432 36.7212L39.8093 34.1086Z" fill="#C6C4FF" stroke="black" stroke-width="0.187835"/>
<path d="M40.5571 34.28L41.872 33.5286C43.1501 34.1946 45.0596 34.9664 44.126 34.8435C43.1924 34.7205 42.3621 35.5948 41.8064 36.1583L40.5571 34.28Z" fill="#1850BE" fill-opacity="0.5"/>
<path d="M26.6604 12.3038C30.7176 15.9102 44.5048 17.4379 50.8912 17.751C58.4046 15.0462 67.5459 21.8208 66.8572 26.0158C65.7302 26.454 54.9109 27.0676 51.4547 26.7671C47.5101 22.4469 42.6264 24.5131 40.9359 26.0158C38.1184 20.3807 33.4225 20.268 26.6604 12.3038Z" fill="url(#paint16_linear_132_2064)" stroke="black" stroke-width="0.375671"/>
<path d="M26.6604 12.3038C30.7176 15.9102 44.5048 17.4379 50.8912 17.751C58.4046 15.0462 67.5459 21.8208 66.8572 26.0158C65.7302 26.454 66.9323 24.6258 63.4762 24.3252C59.5316 20.005 59.3438 25.0766 57.6533 26.5793C54.8357 20.9442 33.4225 20.268 26.6604 12.3038Z" fill="url(#paint17_linear_132_2064)"/>
<g filter="url(#filter3_d_132_2064)">
<g clip-path="url(#paint18_diamond_132_2064_clip_path)" data-figma-skip-parse="true"><g transform="matrix(0.0146512 0.00694991 -0.00453451 0.00955924 64.0374 27.3303)"><rect x="0" y="0" width="1126.54" height="1590.54" fill="url(#paint18_diamond_132_2064)" opacity="1" shape-rendering="crispEdges"/><rect x="0" y="0" width="1126.54" height="1590.54" transform="scale(1 -1)" fill="url(#paint18_diamond_132_2064)" opacity="1" shape-rendering="crispEdges"/><rect x="0" y="0" width="1126.54" height="1590.54" transform="scale(-1 1)" fill="url(#paint18_diamond_132_2064)" opacity="1" shape-rendering="crispEdges"/><rect x="0" y="0" width="1126.54" height="1590.54" transform="scale(-1)" fill="url(#paint18_diamond_132_2064)" opacity="1" shape-rendering="crispEdges"/></g></g><path d="M56.7118 20.5682C58.778 20.3804 59.7172 20.3804 60.6563 20.1925C63.286 18.3142 58.1769 17.3374 64.7887 17.9385C71.4005 18.5396 77.4363 27.8312 79.6277 32.4018C76.4971 33.0906 69.3719 34.2051 65.9157 33.1532C62.4596 32.1013 58.4023 29.2086 56.8996 27.7059C57.3379 27.5807 58.2145 26.2784 56.7118 20.5682Z" data-figma-gradient-fill="{&#34;type&#34;:&#34;GRADIENT_DIAMOND&#34;,&#34;stops&#34;:[{&#34;color&#34;:{&#34;r&#34;:0.28846153616905212,&#34;g&#34;:0.70926392078399658,&#34;b&#34;:1.0,&#34;a&#34;:1.0},&#34;position&#34;:0.0},{&#34;color&#34;:{&#34;r&#34;:0.0030972633976489305,&#34;g&#34;:0.10855777561664581,&#34;b&#34;:0.32211539149284363,&#34;a&#34;:1.0},&#34;position&#34;:1.0}],&#34;stopsVar&#34;:[{&#34;color&#34;:{&#34;r&#34;:0.28846153616905212,&#34;g&#34;:0.70926392078399658,&#34;b&#34;:1.0,&#34;a&#34;:1.0},&#34;position&#34;:0.0},{&#34;color&#34;:{&#34;r&#34;:0.0030972633976489305,&#34;g&#34;:0.10855777561664581,&#34;b&#34;:0.32211539149284363,&#34;a&#34;:1.0},&#34;position&#34;:1.0}],&#34;transform&#34;:{&#34;m00&#34;:29.302341461181641,&#34;m01&#34;:-9.0690231323242188,&#34;m02&#34;:53.920719146728516,&#34;m10&#34;:13.899826049804688,&#34;m11&#34;:19.118480682373047,&#34;m12&#34;:10.821138381958008},&#34;opacity&#34;:1.0,&#34;blendMode&#34;:&#34;NORMAL&#34;,&#34;visible&#34;:true}"/>
<path d="M56.7118 20.5682C58.778 20.3804 59.7172 20.3804 60.6563 20.1925C63.286 18.3142 58.1769 17.3374 64.7887 17.9385C71.4005 18.5396 77.4363 27.8312 79.6277 32.4018C76.4971 33.0906 69.3719 34.2051 65.9157 33.1532C62.4596 32.1013 58.4023 29.2086 56.8996 27.7059C57.3379 27.5807 58.2145 26.2784 56.7118 20.5682Z" stroke="black" stroke-width="1.12701"/>
</g>
<path d="M60.4683 19.2534C60.7187 23.6989 64.4504 32.4395 77.3735 31.8384C78.8761 23.5736 64.9763 15.8724 60.4683 19.2534Z" fill="#010A31" stroke="black" stroke-width="0.375671" stroke-linejoin="round"/>
<g filter="url(#filter4_d_132_2064)">
<path d="M47.8834 16.8111C49.9498 17.1868 50.1376 17.3746 52.0159 18.3138C53.7065 19.4408 53.8943 19.4408 55.0213 20.9435C59.905 15.3085 74.1805 20.0043 76.4346 26.015C77.1859 27.8934 77.3737 23.9488 77.7494 25.4515C76.2467 18.8773 71.7385 16.2476 62.7224 14.1814C53.7063 12.1153 40.1821 14.5571 39.243 14.9328C38.3038 15.3085 38.8673 15.3085 39.0551 15.3085H39.0551C39.243 15.3085 45.0685 16.2994 47.8834 16.8111Z" fill="url(#paint19_linear_132_2064)"/>
</g>
<path d="M69.8612 23.9637C67.4725 22.3713 65.1653 21.319 62.5356 21.5068C64.0383 26.5784 65.9167 24.4971 68.9221 27.5175C70.5364 29.14 73.5553 28.4718 74.1814 28.2839C73.4927 27.6578 72.1153 25.4664 69.8612 23.9637Z" fill="url(#paint20_radial_132_2064)" stroke="black" stroke-width="0.375671" stroke-linejoin="round"/>
<path d="M79.2552 31.0876C79.6104 32.3305 77.3143 31.5259 77.0012 31.2754C77.0012 31.4007 77.0388 31.6511 77.1891 31.6511C77.3769 31.6511 79.2552 32.0268 79.8188 32.5903C80.4198 32.2898 81.2588 29.7728 81.5093 28.2701C81.2588 29.084 78.8796 29.7728 79.2552 31.0876Z" fill="black" stroke="black" stroke-width="0.375671" stroke-linejoin="round"/>
<path d="M80.1916 24.5122C74.3686 16.8109 64.789 15.8717 58.2148 14.7447C53.0336 13.8565 43.6596 14.5968 39.4312 15.0979C48.5976 14.3285 53.7694 17.9229 55.2094 19.8163C55.4599 19.1276 57.501 17.9379 63.662 18.6893C72.2273 20.3422 77.4992 26.4531 78.6889 29.7716C78.6889 28.081 78.5386 24.2116 80.1916 24.5122Z" fill="url(#paint21_linear_132_2064)"/>
<path d="M81.1301 32.4019C81.7312 31.9511 82.1319 29.3339 82.2571 28.0817C94.0908 34.6559 90.5219 45.3625 88.6435 48.3679C89.0192 38.7883 83.0085 32.9654 81.1301 32.4019Z" fill="url(#paint22_linear_132_2064)"/>
<g filter="url(#filter5_d_132_2064)">
<ellipse cx="46.0017" cy="30.3356" rx="5.8229" ry="5.63507" fill="url(#paint23_linear_132_2064)"/>
<path d="M46.0021 24.8881C49.1198 24.8882 51.6367 27.3329 51.6368 30.3353C51.6368 33.3379 49.1199 35.7824 46.0021 35.7826C42.8841 35.7826 40.3663 33.338 40.3663 30.3353C40.3665 27.3328 42.8842 24.8881 46.0021 24.8881Z" stroke="black" stroke-width="0.375671"/>
</g>
<path d="M46.0035 26.2964C48.3416 26.2965 50.2301 28.109 50.2301 30.3355C50.2299 32.5618 48.3414 34.3735 46.0035 34.3736C43.6656 34.3736 41.7772 32.5618 41.777 30.3355C41.777 28.109 43.6654 26.2964 46.0035 26.2964Z" fill="url(#paint24_radial_132_2064)" stroke="black" stroke-width="0.187835"/>
<path d="M46.0055 27.3674C47.7502 27.3674 49.1605 28.6985 49.1608 30.3351C49.1608 31.9721 47.7504 33.3038 46.0055 33.3039C44.2605 33.3039 42.8492 31.9721 42.8492 30.3351C42.8495 28.6984 44.2607 27.3674 46.0055 27.3674Z" fill="url(#paint25_radial_132_2064)" stroke="black" stroke-width="0.0751342"/>
<path d="M49.1985 33.1539C48.6349 33.7174 47.6958 34.4688 46.0053 34.4687C45.2539 34.4687 43.9391 34.2808 42.9999 33.3416C43.9391 32.2147 45.8174 31.839 46.0052 31.839C46.4951 31.839 47.1323 31.6512 49.1985 33.1539Z" fill="url(#paint26_radial_132_2064)"/>
<circle cx="83.5733" cy="30.5234" r="0.563507" fill="#010A1B"/>
<path d="M64.5981 30.5234C64.5981 30.8346 64.3458 31.0869 64.0346 31.0869C63.7234 31.0869 63.4711 30.8346 63.4711 30.5234C63.4711 30.2122 63.7234 29.9599 64.0346 29.9599C64.3458 29.9599 64.5981 30.2122 64.5981 30.5234Z" fill="#010A1B"/>
<circle cx="50.8883" cy="30.523" r="0.187835" fill="#010A1B"/>
<circle cx="41.1233" cy="30.1477" r="0.187835" fill="#010A1B"/>
<path d="M50.1339 17.5093C49.8859 17.5447 49.638 17.5801 49.3901 17.6155C49.4239 17.7985 49.4784 17.9454 49.5345 18.0888C50.0672 19.3703 50.9127 20.4731 51.085 21.6948L51.0788 21.8339L51.2295 21.871C52.417 22.0662 53.6138 22.2855 54.7974 22.5353C54.9342 22.5654 55.0764 22.597 55.2093 22.6339C55.0802 22.5851 54.9409 22.5413 54.8071 22.499C53.6465 22.1444 52.4793 21.8216 51.3 21.5185L51.4445 21.6948C51.3616 20.2342 50.5763 19.0654 50.2079 17.8522C50.1712 17.7289 50.141 17.6036 50.1339 17.5093Z" fill="black"/>
<path d="M38.9561 16.3031C38.7719 16.2663 38.5877 16.2294 38.4035 16.1926C38.3765 16.3514 38.3741 16.5086 38.386 16.6586C38.4328 17.4209 38.9595 18.2225 38.5943 18.536L38.2482 18.7824L38.6719 18.8782C39.5985 19.0567 40.5295 19.4229 41.4695 19.7128L41.5514 19.7433L41.582 19.6549C41.7778 18.9794 41.7717 18.2129 42.2622 17.7018C42.3615 17.6167 42.4899 17.5663 42.6243 17.5627C42.4902 17.5568 42.3544 17.5983 42.2449 17.6796C41.6972 18.1767 41.6511 18.964 41.413 19.6029L41.5255 19.545C40.6147 19.1934 39.7339 18.766 38.7473 18.5013L38.8249 18.8435C39.0249 18.7141 39.1397 18.444 39.1443 18.2316C39.1559 18.0142 39.1191 17.8238 39.0839 17.6425C39.0099 17.282 38.9226 16.9462 38.9208 16.6329C38.9198 16.5168 38.9307 16.4059 38.9561 16.3031Z" fill="black"/>
<path d="M33.2153 15.2043C33.1033 15.1484 32.9913 15.0924 32.8793 15.0364C32.8143 15.1735 32.8076 15.314 32.813 15.4318C32.8565 15.8824 32.9458 16.2338 32.7415 16.5444L32.6214 16.7139L32.8317 16.7621C33.7812 16.9683 34.6976 17.4677 35.6607 17.7989L35.7264 17.8229L35.7285 17.7501C35.6865 17.2848 35.6217 16.7674 35.9854 16.4304C36.0605 16.3578 36.1478 16.2972 36.2405 16.2474C36.145 16.2916 36.0536 16.3472 35.9727 16.4165C35.5786 16.7335 35.6103 17.3048 35.6255 17.7501L35.6933 17.7012C34.7645 17.3205 33.9073 16.7723 32.8873 16.484L32.9775 16.7017C33.2759 16.3142 33.1793 15.7746 33.1698 15.4243C33.1707 15.3328 33.185 15.2567 33.2153 15.2043Z" fill="black"/>
<circle cx="41.1233" cy="18.8777" r="0.187835" fill="#010A1B"/>
<circle cx="35.1089" cy="16.9995" r="0.187835" fill="#010A1B"/>
<path d="M51.5608 31.7608C51.7379 31.9379 51.915 32.115 52.0921 32.2921C52.0504 32.3174 52.1063 32.2695 52.1545 32.2469C53.307 31.8031 54.7611 31.5679 56.1096 31.6147C56.185 31.6221 56.2629 31.6334 56.3345 31.6506C56.2668 31.6215 56.1906 31.5977 56.1163 31.5778C54.7372 31.3154 53.3839 31.276 51.8932 31.5827C51.7977 31.6186 51.7154 31.6291 51.5608 31.7608Z" fill="black"/>
<path d="M56.9035 29.0208C58.1557 30.4608 61.6745 33.5288 65.7318 34.2801C66.6112 34.6319 69.6321 36.7957 70.321 37.0692C70.3566 37.0787 70.3921 37.0882 70.4276 37.0977C70.4038 37.0977 70.3678 37.0878 70.321 37.0692C64.7099 35.5738 58.2112 33.9116 57.0913 35.0315C53.5226 32.214 58.4061 34.0923 56.9035 29.0208Z" fill="url(#paint27_linear_132_2064)"/>
<path d="M48.0701 36.3474L53.1417 41.6068L51.639 42.9217L46.1918 37.4744L43.7499 39.1649L48.8215 44.9878L46.7553 46.4905L41.4959 40.4798L39.054 42.3581L44.5012 48.3689L42.2472 50.4351L36.2365 44.4243L34.1703 46.1149" stroke="black" stroke-width="0.375671"/>
<path d="M41.8745 50.4344L40.5597 49.1196L37.5543 51.3736L39.057 52.8763C39.2073 52.726 40.998 51.1858 41.8745 50.4344Z" fill="#7873FD"/>
<path d="M18.391 38.6002L19.8937 33.3408C21.751 29.2548 28.0157 27.0052 32.8772 24.9579C32.9329 24.9296 32.9879 24.9063 33.0422 24.8882C32.9874 24.9114 32.9324 24.9346 32.8772 24.9579C31.1982 25.8093 28.9339 31.1411 29.6611 32.7773C27.7828 32.2138 22.3355 34.6557 18.391 38.6002Z" fill="url(#paint28_linear_132_2064)" stroke="black" stroke-width="0.375671"/>
<path d="M19.1447 37.0971L19.896 33.9039C21.2566 30.7324 25.8542 28.841 29.4367 27.2432C29.5105 27.2031 29.5862 27.1691 29.6634 27.1418C29.5884 27.1755 29.5128 27.2093 29.4367 27.2432C28.3159 27.852 27.6089 29.876 27.7851 31.4621C25.1554 32.0256 21.023 35.0309 19.1447 37.0971Z" fill="url(#paint29_linear_132_2064)"/>
<g filter="url(#filter6_d_132_2064)">
<path d="M13.5085 55.6936L17.6409 41.606L26.657 34.8439L34.1705 33.9047L35.4853 35.5952L28.3476 41.606C27.7214 41.919 25.7554 42.5076 24.403 45.3627C21.8484 45.9638 16.2009 52.7509 13.5085 55.6936Z" fill="url(#paint30_linear_132_2064)"/>
<path d="M13.5085 55.6936L17.6409 41.606L26.657 34.8439L34.1705 33.9047L35.4853 35.5952L28.3476 41.606C27.7214 41.919 25.7554 42.5076 24.403 45.3627C21.8484 45.9638 16.2009 52.7509 13.5085 55.6936Z" stroke="black" stroke-width="0.375671"/>
</g>
<path d="M27.035 36.5336L17.2676 42.92L14.2622 53.4388L27.7864 39.3512L27.035 36.5336Z" fill="#083081"/>
<path d="M26.6604 34.8438L28.3509 41.6059" stroke="black" stroke-width="0.187835"/>
<path d="M28.5349 39.7274L27.7836 35.9707L33.4186 35.0315L33.7943 36.5342L28.5349 39.7274Z" fill="#C6C4FF"/>
<circle cx="28.7224" cy="35.7827" r="0.563507" fill="#010A1B"/>
<defs>
<filter id="filter0_d_132_2064" x="18.3757" y="32.8908" width="42.7512" height="46.8456" filterUnits="userSpaceOnUse" color-interpolation-filters="sRGB">
<feFlood flood-opacity="0" result="BackgroundImageFix"/>
<feColorMatrix in="SourceAlpha" type="matrix" values="0 0 0 0 0 0 0 0 0 0 0 0 0 0 0 0 0 0 127 0" result="hardAlpha"/>
<feOffset dy="1.87835"/>
<feGaussianBlur stdDeviation="0.375671"/>
<feComposite in2="hardAlpha" operator="out"/>
<feColorMatrix type="matrix" values="0 0 0 0 0 0 0 0 0 0 0 0 0 0 0 0 0 0 0.25 0"/>
<feBlend mode="normal" in2="BackgroundImageFix" result="effect1_dropShadow_132_2064"/>
<feBlend mode="normal" in="SourceGraphic" in2="effect1_dropShadow_132_2064" result="shape"/>
</filter>
<filter id="filter1_d_132_2064" x="48.7636" y="23.498" width="32.2562" height="18.1183" filterUnits="userSpaceOnUse" color-interpolation-filters="sRGB">
<feFlood flood-opacity="0" result="BackgroundImageFix"/>
<feColorMatrix in="SourceAlpha" type="matrix" values="0 0 0 0 0 0 0 0 0 0 0 0 0 0 0 0 0 0 127 0" result="hardAlpha"/>
<feOffset dy="1.12701"/>
<feGaussianBlur stdDeviation="0.187835"/>
<feComposite in2="hardAlpha" operator="out"/>
<feColorMatrix type="matrix" values="0 0 0 0 0 0 0 0 0 0 0 0 0 0 0 0 0 0 0.25 0"/>
<feBlend mode="normal" in2="BackgroundImageFix" result="effect1_dropShadow_132_2064"/>
<feBlend mode="normal" in="SourceGraphic" in2="effect1_dropShadow_132_2064" result="shape"/>
</filter>
<filter id="filter2_d_132_2064" x="49.157" y="23.498" width="31.8624" height="17.5257" filterUnits="userSpaceOnUse" color-interpolation-filters="sRGB">
<feFlood flood-opacity="0" result="BackgroundImageFix"/>
<feColorMatrix in="SourceAlpha" type="matrix" values="0 0 0 0 0 0 0 0 0 0 0 0 0 0 0 0 0 0 127 0" result="hardAlpha"/>
<feOffset dy="0.751342"/>
<feGaussianBlur stdDeviation="0.187835"/>
<feComposite in2="hardAlpha" operator="out"/>
<feColorMatrix type="matrix" values="0 0 0 0 0 0 0 0 0 0 0 0 0 0 0 0 0 0 0.25 0"/>
<feBlend mode="normal" in2="BackgroundImageFix" result="effect1_dropShadow_132_2064"/>
<feBlend mode="normal" in="SourceGraphic" in2="effect1_dropShadow_132_2064" result="shape"/>
</filter>
<filter id="filter3_d_132_2064" x="55.4483" y="17.1984" width="25.3706" height="18.0772" filterUnits="userSpaceOnUse" color-interpolation-filters="sRGB">
<feFlood flood-opacity="0" result="BackgroundImageFix"/>
<feColorMatrix in="SourceAlpha" type="matrix" values="0 0 0 0 0 0 0 0 0 0 0 0 0 0 0 0 0 0 127 0" result="hardAlpha"/>
<feOffset dy="0.751342"/>
<feGaussianBlur stdDeviation="0.187835"/>
<feComposite in2="hardAlpha" operator="out"/>
<feColorMatrix type="matrix" values="0 0 0 0 0 0 0 0 0 0 0 0 0 0 0 0 0 0 0.25 0"/>
<feBlend mode="normal" in2="BackgroundImageFix" result="effect1_dropShadow_132_2064"/>
<feBlend mode="normal" in="SourceGraphic" in2="effect1_dropShadow_132_2064" result="shape"/>
</filter>
<clipPath id="paint18_diamond_132_2064_clip_path"><path d="M56.7118 20.5682C58.778 20.3804 59.7172 20.3804 60.6563 20.1925C63.286 18.3142 58.1769 17.3374 64.7887 17.9385C71.4005 18.5396 77.4363 27.8312 79.6277 32.4018C76.4971 33.0906 69.3719 34.2051 65.9157 33.1532C62.4596 32.1013 58.4023 29.2086 56.8996 27.7059C57.3379 27.5807 58.2145 26.2784 56.7118 20.5682Z"/></clipPath><filter id="filter4_d_132_2064" x="37.9642" y="13.3609" width="40.5365" height="15.0509" filterUnits="userSpaceOnUse" color-interpolation-filters="sRGB">
<feFlood flood-opacity="0" result="BackgroundImageFix"/>
<feColorMatrix in="SourceAlpha" type="matrix" values="0 0 0 0 0 0 0 0 0 0 0 0 0 0 0 0 0 0 127 0" result="hardAlpha"/>
<feOffset dy="1.12701"/>
<feGaussianBlur stdDeviation="0.375671"/>
<feComposite in2="hardAlpha" operator="out"/>
<feColorMatrix type="matrix" values="0 0 0 0 0 0 0 0 0 0 0 0 0 0 0 0 0 0 0.25 0"/>
<feBlend mode="normal" in2="BackgroundImageFix" result="effect1_dropShadow_132_2064"/>
<feBlend mode="normal" in="SourceGraphic" in2="effect1_dropShadow_132_2064" result="shape"/>
</filter>
<filter id="filter5_d_132_2064" x="39.8032" y="24.7006" width="12.3971" height="13.1485" filterUnits="userSpaceOnUse" color-interpolation-filters="sRGB">
<feFlood flood-opacity="0" result="BackgroundImageFix"/>
<feColorMatrix in="SourceAlpha" type="matrix" values="0 0 0 0 0 0 0 0 0 0 0 0 0 0 0 0 0 0 127 0" result="hardAlpha"/>
<feOffset dy="1.50268"/>
<feGaussianBlur stdDeviation="0.187835"/>
<feComposite in2="hardAlpha" operator="out"/>
<feColorMatrix type="matrix" values="0 0 0 0 0 0 0 0 0 0 0 0 0 0 0 0 0 0 0.25 0"/>
<feBlend mode="normal" in2="BackgroundImageFix" result="effect1_dropShadow_132_2064"/>
<feBlend mode="normal" in="SourceGraphic" in2="effect1_dropShadow_132_2064" result="shape"/>
</filter>
<filter id="filter6_d_132_2064" x="12.9526" y="33.7051" width="23.1676" height="22.8667" filterUnits="userSpaceOnUse" color-interpolation-filters="sRGB">
<feFlood flood-opacity="0" result="BackgroundImageFix"/>
<feColorMatrix in="SourceAlpha" type="matrix" values="0 0 0 0 0 0 0 0 0 0 0 0 0 0 0 0 0 0 127 0" result="hardAlpha"/>
<feOffset dy="0.375671"/>
<feGaussianBlur stdDeviation="0.187835"/>
<feComposite in2="hardAlpha" operator="out"/>
<feColorMatrix type="matrix" values="0 0 0 0 0 0 0 0 0 0 0 0 0 0 0 0 0 0 0.25 0"/>
<feBlend mode="normal" in2="BackgroundImageFix" result="effect1_dropShadow_132_2064"/>
<feBlend mode="normal" in="SourceGraphic" in2="effect1_dropShadow_132_2064" result="shape"/>
</filter>
<linearGradient id="paint0_linear_132_2064" x1="25.7192" y1="10.0492" x2="59.7174" y2="73.5376" gradientUnits="userSpaceOnUse">
<stop stop-color="#7873FD"/>
<stop offset="0.533654" stop-color="#7873FD"/>
<stop offset="1" stop-color="#083081"/>
</linearGradient>
<linearGradient id="paint1_linear_132_2064" x1="117.571" y1="51.7494" x2="21.3989" y2="99.2718" gradientUnits="userSpaceOnUse">
<stop stop-color="#7873FD"/>
<stop offset="0.365385" stop-color="#083081"/>
<stop offset="0.802885" stop-color="#083081"/>
<stop offset="0.990385" stop-color="#7873FD"/>
</linearGradient>
<linearGradient id="paint2_linear_132_2064" x1="38.8661" y1="32.7773" x2="34.9215" y2="35.2191" gradientUnits="userSpaceOnUse">
<stop stop-color="#7873FD"/>
<stop offset="1" stop-color="#D3EDFF"/>
</linearGradient>
<linearGradient id="paint3_linear_132_2064" x1="31.729" y1="20.9435" x2="49.1977" y2="55.8809" gradientUnits="userSpaceOnUse">
<stop stop-color="#083081"/>
<stop offset="1" stop-color="#020A1B"/>
</linearGradient>
<linearGradient id="paint4_linear_132_2064" x1="42.9989" y1="43.1094" x2="21.21" y2="82.5548" gradientUnits="userSpaceOnUse">
<stop stop-color="#7873FD"/>
<stop offset="1" stop-color="#083081"/>
</linearGradient>
<linearGradient id="paint5_linear_132_2064" x1="78.3128" y1="31.2091" x2="81.8816" y2="40.0374" gradientUnits="userSpaceOnUse">
<stop stop-color="#C6C4FF"/>
<stop offset="1" stop-color="#7873FD"/>
</linearGradient>
<linearGradient id="paint6_linear_132_2064" x1="60.8427" y1="36.3466" x2="7.12178" y2="106.973" gradientUnits="userSpaceOnUse">
<stop stop-color="#083081"/>
<stop offset="0.232023" stop-color="#7873FD"/>
<stop offset="0.5625" stop-color="#083081"/>
<stop offset="0.610577" stop-color="#083081"/>
<stop offset="0.893451" stop-color="#7873FD"/>
</linearGradient>
<linearGradient id="paint7_linear_132_2064" x1="54.6427" y1="36.5342" x2="32.2903" y2="65.6487" gradientUnits="userSpaceOnUse">
<stop stop-color="#7873FD"/>
<stop offset="0.463" stop-color="#5FBCFB"/>
<stop offset="1" stop-color="#7873FD"/>
</linearGradient>
<linearGradient id="paint8_linear_132_2064" x1="7.68489" y1="91.3822" x2="75.1178" y2="25.6398" gradientUnits="userSpaceOnUse">
<stop stop-color="#020A1B"/>
<stop offset="0.407465" stop-color="#083081"/>
<stop offset="1" stop-color="#020A1B"/>
</linearGradient>
<linearGradient id="paint9_linear_132_2064" x1="59.3416" y1="33.7159" x2="58.9659" y2="35.782" gradientUnits="userSpaceOnUse">
<stop stop-color="#C6C4FF"/>
<stop offset="1" stop-color="#7873FD"/>
</linearGradient>
<linearGradient id="paint10_linear_132_2064" x1="28.5465" y1="24.1959" x2="40.3739" y2="22.0288" gradientUnits="userSpaceOnUse">
<stop offset="0.394231" stop-color="#C6C4FF"/>
<stop offset="0.586918" stop-color="#44B2FE"/>
<stop offset="1" stop-color="#7873FD"/>
</linearGradient>
<linearGradient id="paint11_linear_132_2064" x1="36.7656" y1="2.04158" x2="118.286" y2="60.4584" gradientUnits="userSpaceOnUse">
<stop stop-color="#7873FD"/>
<stop offset="0.523434" stop-color="#C6C4FF"/>
<stop offset="1" stop-color="#7873FD"/>
</linearGradient>
<linearGradient id="paint12_linear_132_2064" x1="59.7168" y1="29.2078" x2="53.5831" y2="33.7586" gradientUnits="userSpaceOnUse">
<stop stop-color="#C6C4FF"/>
<stop offset="1" stop-color="#7873FD"/>
</linearGradient>
<linearGradient id="paint13_linear_132_2064" x1="74.9301" y1="30.4358" x2="78.499" y2="39.2641" gradientUnits="userSpaceOnUse">
<stop stop-color="#C6C4FF"/>
<stop offset="1" stop-color="#7873FD"/>
</linearGradient>
<linearGradient id="paint14_linear_132_2064" x1="84.1393" y1="37.6608" x2="62.3503" y2="29.9595" gradientUnits="userSpaceOnUse">
<stop stop-color="#D3EDFF"/>
<stop offset="0.105307" stop-color="#C6C4FF"/>
<stop offset="1" stop-color="#7873FD"/>
</linearGradient>
<linearGradient id="paint15_linear_132_2064" x1="58.0289" y1="23.1982" x2="29.1023" y2="22.2591" gradientUnits="userSpaceOnUse">
<stop stop-color="#D3EDFF"/>
<stop offset="0.096813" stop-color="#9692EA"/>
<stop offset="1" stop-color="#140F99"/>
</linearGradient>
<linearGradient id="paint16_linear_132_2064" x1="60.283" y1="20.3807" x2="29.1023" y2="22.259" gradientUnits="userSpaceOnUse">
<stop stop-color="#D3EDFF"/>
<stop offset="0.0456975" stop-color="#C6C4FF"/>
<stop offset="1" stop-color="#7873FD"/>
</linearGradient>
<linearGradient id="paint17_linear_132_2064" x1="25.9091" y1="13.6186" x2="69.6747" y2="24.7009" gradientUnits="userSpaceOnUse">
<stop offset="0.375527" stop-color="#B0ADFF"/>
<stop offset="0.525624" stop-color="#D3EDFF"/>
<stop offset="0.572529" stop-color="#D2EAFF"/>
<stop offset="0.766361" stop-color="#7873FD"/>
</linearGradient>
<linearGradient id="paint18_diamond_132_2064" x1="0" y1="0" x2="500" y2="500" gradientUnits="userSpaceOnUse">
<stop stop-color="#4AB5FF"/>
<stop offset="1" stop-color="#011C52"/>
</linearGradient>
<linearGradient id="paint19_linear_132_2064" x1="74.744" y1="19.4408" x2="72.49" y2="21.1313" gradientUnits="userSpaceOnUse">
<stop stop-color="#A3A1FF"/>
<stop offset="1" stop-color="#BFBDFF"/>
</linearGradient>
<radialGradient id="paint20_radial_132_2064" cx="0" cy="0" r="1" gradientUnits="userSpaceOnUse" gradientTransform="translate(68.1707 25.4664) rotate(18.0902) scale(2.37124 3.0501)">
<stop stop-color="#22BDFD"/>
<stop offset="1" stop-color="#01EFFA"/>
</radialGradient>
<linearGradient id="paint21_linear_132_2064" x1="80.5672" y1="25.827" x2="43.7515" y2="15.3082" gradientUnits="userSpaceOnUse">
<stop stop-color="#E2F3FF"/>
<stop offset="0.154119" stop-color="#44B2FE"/>
<stop offset="1" stop-color="#083081"/>
</linearGradient>
<linearGradient id="paint22_linear_132_2064" x1="83.0085" y1="30.5235" x2="90.1462" y2="45.5504" gradientUnits="userSpaceOnUse">
<stop stop-color="#D3EDFF"/>
<stop offset="0.188249" stop-color="#44B2FE"/>
<stop offset="1" stop-color="#083081"/>
</linearGradient>
<linearGradient id="paint23_linear_132_2064" x1="45.8009" y1="23.8956" x2="46.0027" y2="36.3732" gradientUnits="userSpaceOnUse">
<stop stop-color="#7873FD"/>
<stop offset="0.485577" stop-color="#C6C4FF"/>
<stop offset="1" stop-color="#7873FD"/>
</linearGradient>
<radialGradient id="paint24_radial_132_2064" cx="0" cy="0" r="1" gradientUnits="userSpaceOnUse" gradientTransform="translate(46.0034 30.3351) rotate(90) scale(4.13238 4.32022)">
<stop stop-color="white"/>
<stop offset="1" stop-color="#D9D8FF"/>
</radialGradient>
<radialGradient id="paint25_radial_132_2064" cx="0" cy="0" r="1" gradientUnits="userSpaceOnUse" gradientTransform="translate(46.0053 30.3356) rotate(90) scale(3.00537 3.1932)">
<stop stop-color="#D3EDFF"/>
<stop offset="1" stop-color="#ABA8FF"/>
</radialGradient>
<radialGradient id="paint26_radial_132_2064" cx="0" cy="0" r="1" gradientUnits="userSpaceOnUse" gradientTransform="translate(46.0052 30.3363) rotate(90) scale(4.13238 4.32022)">
<stop stop-color="#03153B"/>
<stop offset="1" stop-color="#031436"/>
</radialGradient>
<linearGradient id="paint27_linear_132_2064" x1="62.1628" y1="34.468" x2="67.4222" y2="37.6612" gradientUnits="userSpaceOnUse">
<stop stop-color="#8682FF"/>
</linearGradient>
<linearGradient id="paint28_linear_132_2064" x1="25.0592" y1="25.4518" x2="25.0592" y2="39.3516" gradientUnits="userSpaceOnUse">
<stop stop-color="#7873FD"/>
<stop offset="0.394231" stop-color="#D3EDFF"/>
<stop offset="1" stop-color="#7873FD"/>
</linearGradient>
<linearGradient id="paint29_linear_132_2064" x1="24.5919" y1="28.2689" x2="20.4595" y2="38.7876" gradientUnits="userSpaceOnUse">
<stop stop-color="#76A3FF"/>
<stop offset="1" stop-color="#083081"/>
</linearGradient>
<linearGradient id="paint30_linear_132_2064" x1="31.5408" y1="33.7169" x2="13.5085" y2="50.9978" gradientUnits="userSpaceOnUse">
<stop stop-color="#C6C4FF"/>
<stop offset="0.1875" stop-color="#7873FD"/>
<stop offset="0.533654" stop-color="#D3EDFF"/>
<stop offset="0.649922" stop-color="#7873FD"/>
<stop offset="1" stop-color="#C6C4FF"/>
</linearGradient>
</defs>
</svg>
