<svg width="479" height="480" viewBox="0 0 479 480" fill="none" xmlns="http://www.w3.org/2000/svg">
<path d="M223.625 140.327C190.736 140.327 163.978 168.486 163.978 203.097C163.978 237.709 190.736 265.868 223.625 265.868C256.515 265.868 283.272 237.709 283.272 203.097C283.272 168.486 256.515 140.327 223.625 140.327ZM223.625 268.418C189.33 268.418 161.429 239.115 161.429 203.097C161.429 167.079 189.33 137.777 223.625 137.777C257.92 137.777 285.822 167.079 285.822 203.097C285.822 239.115 257.92 268.418 223.625 268.418Z" fill="white"/>
<path d="M223.624 125.856C183.138 125.856 150.201 160.507 150.201 203.098C150.201 245.69 183.138 280.341 223.624 280.341C264.11 280.341 297.048 245.69 297.048 203.098C297.048 160.507 264.11 125.856 223.624 125.856ZM223.624 282.466C181.966 282.466 148.075 246.862 148.075 203.098C148.075 159.335 181.966 123.731 223.624 123.731C265.282 123.731 299.173 159.335 299.173 203.098C299.173 246.862 265.282 282.466 223.624 282.466Z" fill="white"/>
<path d="M223.625 112.736C176.264 112.736 137.732 153.271 137.732 203.097C137.732 252.923 176.264 293.459 223.625 293.459C270.986 293.459 309.518 252.923 309.518 203.097C309.518 153.271 270.986 112.736 223.625 112.736ZM223.625 296.01C174.857 296.01 135.182 254.329 135.182 203.097C135.182 151.865 174.857 110.185 223.625 110.185C272.393 110.185 312.068 151.865 312.068 203.097C312.068 254.329 272.393 296.01 223.625 296.01Z" fill="white"/>
<path d="M223.624 100.041C169.61 100.041 125.668 146.272 125.668 203.097C125.668 259.923 169.61 306.154 223.624 306.154C277.638 306.154 321.582 259.923 321.582 203.097C321.582 146.272 277.638 100.041 223.624 100.041ZM223.624 309.129C167.97 309.129 122.692 261.563 122.692 203.097C122.692 144.631 167.97 97.066 223.624 97.066C279.279 97.066 324.557 144.631 324.557 203.097C324.557 261.563 279.279 309.129 223.624 309.129Z" fill="white"/>
<path d="M223.626 87.3479C162.96 87.3479 113.604 139.273 113.604 203.098C113.604 266.923 162.96 318.848 223.626 318.848C284.292 318.848 333.648 266.923 333.648 203.098C333.648 139.273 284.292 87.3479 223.626 87.3479ZM223.626 322.248C161.084 322.248 110.203 268.798 110.203 203.098C110.203 137.398 161.084 83.9478 223.626 83.9478C286.167 83.9478 337.047 137.398 337.047 203.098C337.047 268.798 286.167 322.248 223.626 322.248Z" fill="white"/>
<path d="M223.624 71.6174C154.713 71.6174 98.65 130.6 98.65 203.098C98.65 275.597 154.713 334.579 223.624 334.579C292.535 334.579 348.599 275.597 348.599 203.098C348.599 130.6 292.535 71.6174 223.624 71.6174ZM223.624 338.404C152.604 338.404 94.8237 277.706 94.8237 203.098C94.8237 128.49 152.604 67.7923 223.624 67.7923C294.645 67.7923 352.425 128.49 352.425 203.098C352.425 277.706 294.645 338.404 223.624 338.404Z" fill="white"/>
<path d="M223.626 54.368C145.672 54.368 82.2527 121.088 82.2527 203.098C82.2527 285.108 145.672 351.829 223.626 351.829C301.579 351.829 364.999 285.108 364.999 203.098C364.999 121.088 301.579 54.368 223.626 54.368ZM223.626 356.079C143.328 356.079 78.0015 287.452 78.0015 203.098C78.0015 118.744 143.328 50.1178 223.626 50.1178C303.923 50.1178 369.25 118.744 369.25 203.098C369.25 287.452 303.923 356.079 223.626 356.079Z" fill="white"/>
<path d="M223.625 38.5153C137.38 38.5153 67.2143 112.346 67.2143 203.098C67.2143 293.849 137.38 367.68 223.625 367.68C309.869 367.68 380.036 293.849 380.036 203.098C380.036 112.346 309.869 38.5153 223.625 38.5153ZM223.625 373.63C134.098 373.63 61.2627 297.13 61.2627 203.098C61.2627 109.066 134.098 32.5653 223.625 32.5653C313.151 32.5653 385.986 109.066 385.986 203.098C385.986 297.13 313.151 373.63 223.625 373.63Z" fill="white"/>
<path d="M83.97 276.457V310.837H47.5027C44.7438 310.837 42.5155 311.402 40.8533 312.499C39.1554 313.595 38.2005 315.117 37.9883 317.062C38.5542 320.776 41.1714 324.101 45.8755 327.002C57.4067 334.181 66.6386 340.69 73.6059 346.491C80.5738 352.291 85.6676 358.021 88.8154 363.681C91.9989 369.34 93.5906 375.636 93.5906 382.533C93.5906 386.212 93.1306 390.456 92.2467 395.266C90.0892 404.533 84.9603 411.856 76.825 417.196C68.6898 422.538 57.6184 425.226 43.6826 425.226H1.55631V390.845H38.4122C43.506 390.845 47.3259 390.067 49.8373 388.511C52.3839 386.955 53.6217 385.115 53.6217 382.958C53.6217 379.527 52.1363 376.768 49.1649 374.787C44.956 371.321 38.9785 366.723 31.2321 360.992C23.4508 355.262 17.5085 350.488 13.4054 346.668C9.30248 342.812 6.04821 338.497 3.60774 333.651C1.20265 328.805 0 323.182 0 316.779C0 314.409 0.212415 311.898 0.636582 309.21C1.45043 304.435 3.04211 300.049 5.44676 296.087C7.81695 292.126 10.8942 288.66 14.6432 285.688C18.3926 282.718 22.602 280.419 27.2353 278.827C31.8691 277.235 36.8561 276.457 42.2326 276.457H83.97ZM132.781 322.084L147.495 390.81L161.077 322.084H195.882L171.442 404.782C167.02 420.097 158.885 427.772 147.071 427.772C133.737 427.772 125.318 420.416 121.781 405.701L98.8961 322.084H132.781ZM240.626 255.841V425.226H207.095V255.841H240.626ZM293.859 296.405V321.236H318.088V352.22H293.435V380.481C293.435 385.929 294.779 389.572 297.467 391.446C300.155 393.321 303.869 394.312 308.538 394.453C310.908 394.312 314.197 394.241 318.477 394.241V425.226H295.593C290.11 425.226 284.733 423.74 279.428 420.804C274.087 417.869 269.736 413.801 266.305 408.531C262.875 403.296 261.177 397.388 261.177 390.81V296.405H293.859Z" fill="white"/>
<path d="M53.0497 268.051L51.8069 263.851L53.2549 263.422C54.6381 263.014 55.5346 262.558 55.9322 262.066C56.3347 261.572 56.4068 260.899 56.1555 260.05C55.8927 259.162 55.4683 258.554 54.8815 258.222C54.2948 257.891 53.5627 257.858 52.689 258.117C52.0148 258.317 51.483 258.648 51.0947 259.115C50.7103 259.577 50.2925 260.461 49.8516 261.759L48.9643 264.357C48.2259 266.595 47.511 268.088 46.8211 268.841C46.132 269.594 45.1523 270.155 43.8838 270.53C41.9915 271.09 40.3431 270.97 38.9368 270.164C37.5313 269.359 36.5388 267.969 35.9566 266.002C35.3372 263.91 35.4334 262.144 36.2472 260.691C37.056 259.241 38.5299 258.203 40.6669 257.57C40.8813 257.506 41.0464 257.457 41.1626 257.428C41.2842 257.398 41.3868 257.378 41.4798 257.362L42.6591 261.346L42.0594 261.523C40.8364 261.886 40.0216 262.344 39.6103 262.9C39.2045 263.455 39.1351 264.192 39.4054 265.106C39.6052 265.78 39.9602 266.245 40.4684 266.512C40.9765 266.78 41.5835 266.813 42.2875 266.604C43.2362 266.323 44.0292 265.149 44.6725 263.085L44.6842 263.033L45.5677 260.257C46.1735 258.286 46.8725 256.868 47.6733 255.995C48.469 255.124 49.615 254.465 51.1181 254.02C53.1649 253.414 54.921 253.53 56.3766 254.375C57.8357 255.214 58.8848 256.723 59.5282 258.895C60.1976 261.156 60.1116 263.012 59.2707 264.466C58.4293 265.916 56.8059 266.999 54.4093 267.709C54.1598 267.782 53.7343 267.886 53.1394 268.024L53.0497 268.051ZM45.901 245.414L45.185 241.761L35.8777 245.495L45.901 245.414ZM56.3679 249.763L32.2945 249.089L31.1661 243.33L53.1956 233.574L54.1021 238.199L48.5298 240.469L49.497 245.405L55.5089 245.379L56.3679 249.763ZM39.0566 227.515L38.8086 225.012C38.6819 223.742 38.3413 222.892 37.7846 222.45C37.2328 222.008 36.3019 221.855 34.9962 221.984C33.8302 222.1 33.0438 222.45 32.6304 223.03C32.2173 223.615 32.0809 224.612 32.222 226.032L32.4344 228.172L39.0566 227.515ZM52.9668 230.372L29.587 232.694L28.8125 224.895C28.5782 222.537 28.8861 220.786 29.7417 219.654C30.5965 218.517 32.105 217.844 34.271 217.629C35.789 217.478 37.0134 217.639 37.9448 218.112C38.8758 218.579 39.4706 219.352 39.7336 220.419C40.0727 218.298 41.7113 217.042 44.6455 216.662C44.7808 216.649 44.8787 216.638 44.9514 216.631L48.0325 216.2C48.9093 216.071 49.6029 215.892 50.119 215.657C50.6296 215.424 51.0622 215.093 51.4076 214.672L51.9209 219.843C51.5391 220.001 51.0871 220.14 50.5598 220.255C50.0317 220.366 49.2844 220.481 48.3176 220.598L45.8778 220.903L45.2562 220.965C43.9035 221.1 42.9997 221.482 42.549 222.108C42.1036 222.733 41.9663 223.935 42.1427 225.707L42.2904 227.194L52.5498 226.175L52.9668 230.372ZM48.3342 207.313L48.3264 205.376C48.3222 204.387 48.2469 203.695 48.1043 203.299C47.9626 202.904 47.7164 202.588 47.3669 202.355C46.7555 201.951 45.9213 201.663 44.8586 201.495C43.7956 201.328 42.0925 201.246 39.7547 201.255C37.4789 201.264 35.8235 201.375 34.788 201.582C33.7473 201.789 32.9677 202.136 32.4439 202.627C32.1791 202.884 31.9932 203.213 31.8904 203.614C31.7828 204.015 31.7335 204.646 31.7368 205.5L31.7439 207.379L48.3342 207.313ZM51.8192 211.58L28.3247 211.673L28.2966 204.644C28.2909 203.212 28.406 202.071 28.647 201.216C28.8888 200.366 29.2813 199.667 29.8315 199.118C30.6296 198.287 31.6431 197.705 32.8654 197.357C34.0928 197.013 35.9926 196.834 38.5809 196.824C41.9133 196.81 44.2726 196.915 45.6534 197.144C47.0289 197.373 48.2024 197.769 49.173 198.322C50.1387 198.855 50.8186 199.607 51.2023 200.564C51.5867 201.525 51.7856 203.191 51.7949 205.56L51.8192 211.58ZM43.5277 186.407L44.0454 182.72L34.0287 183.206L43.5277 186.407ZM51.9978 193.938L29.4674 185.431L30.2837 179.62L54.2926 177.603L53.6368 182.269L47.6284 182.592L46.9288 187.574L52.6191 189.514L51.9978 193.938ZM42.2018 167.102L42.7892 164.657C43.0867 163.416 43.0443 162.501 42.6635 161.901C42.2879 161.302 41.4593 160.851 40.1833 160.544C39.0443 160.271 38.1864 160.343 37.6048 160.755C37.0231 161.172 36.5662 162.07 36.2329 163.456L35.7307 165.547L42.2018 167.102ZM54.4005 174.371L31.5558 168.882L33.3864 161.262C33.9397 158.959 34.8057 157.405 35.9855 156.617C37.1668 155.825 38.8128 155.684 40.9288 156.193C42.4124 156.549 43.5165 157.104 44.2406 157.856C44.9658 158.603 45.2741 159.528 45.1716 160.624C46.1888 158.731 48.1489 158.083 51.046 158.688C51.1776 158.719 51.2733 158.742 51.3447 158.759L54.3961 159.364C55.2667 159.531 55.9809 159.589 56.5449 159.538C57.1035 159.484 57.6213 159.314 58.0858 159.029L56.8721 164.083C56.4596 164.107 55.9866 164.09 55.4506 164.025C54.9159 163.956 54.1719 163.819 53.2201 163.612L50.8157 163.099L50.2085 162.953C48.8869 162.635 47.9076 162.7 47.2763 163.143C46.6499 163.587 46.1258 164.677 45.7098 166.408L45.361 167.861L55.3856 170.269L54.4005 174.371ZM62.4344 145.228L38.5014 142.561L40.0292 138.13L58.8927 140.944L42.1964 131.844L43.7057 127.467L64.3079 139.793L62.4344 145.228ZM60.9219 123.938L62.4672 120.551L52.7266 118.167L60.9219 123.938ZM66.8984 133.569L47.7201 119.002L50.1566 113.663L73.7474 118.561L71.7907 122.848L65.9393 121.449L63.8507 126.025L68.7532 129.504L66.8984 133.569ZM75.4937 115.716L55.1469 103.967L57.3349 100.179L74.2171 109.928L78.1701 103.083L81.6337 105.083L75.4937 115.716ZM83.9605 102.187L64.82 88.5604L67.3567 84.9972L83.239 96.3034L87.823 89.8646L91.0812 92.1835L83.9605 102.187ZM89.0899 79.59L91.5259 76.7748L82.8486 71.7467L89.0899 79.59ZM92.1172 90.5131L77.8097 71.1401L81.6496 66.7021L102.91 78.0372L99.827 81.6009L94.6047 78.6122L91.3137 82.4163L95.0404 87.1339L92.1172 90.5131ZM106.278 70.4073L107.583 69.1579C108.4 68.3765 108.781 67.6307 108.727 66.9109C108.676 66.1957 108.176 65.3407 107.229 64.351C106.247 63.324 105.389 62.7898 104.654 62.744C103.921 62.7021 103.061 63.1508 102.068 64.1009L101.115 65.0119L106.278 70.4073ZM98.934 62.7321L99.995 61.7169C100.789 60.9576 101.173 60.2582 101.146 59.6205C101.119 58.9907 100.662 58.2104 99.776 57.2852C98.981 56.4534 98.2827 56.0336 97.6869 56.02C97.0899 56.007 96.3702 56.407 95.5197 57.2207L94.5493 58.1498L98.934 62.7321ZM105.519 75.7602L89.2761 58.7847L94.3591 53.9212C95.8117 52.5315 97.2189 51.8332 98.5742 51.8338C99.9294 51.8264 101.281 52.5304 102.623 53.9337C103.696 55.0552 104.358 56.0935 104.599 57.0453C104.839 57.997 104.672 58.8702 104.095 59.6607C104.99 59.0133 105.989 58.8141 107.084 59.0704C108.179 59.3262 109.259 60.0098 110.327 61.1273C112.052 62.9296 112.939 64.6096 112.997 66.1764C113.054 67.7427 112.284 69.2874 110.688 70.8141L105.519 75.7602ZM118.615 63.8332L104.043 45.4035L107.449 42.71L113.166 49.9405L117.871 46.2195L112.155 38.9895L115.561 36.2961L130.133 54.7259L126.727 57.4193L120.119 49.0623L115.414 52.7827L122.021 61.1398L118.615 63.8332ZM136.11 46.9573L137.672 46.0491C138.649 45.481 139.194 44.8444 139.31 44.1326C139.429 43.4247 139.143 42.4769 138.454 41.2931C137.74 40.0641 137.032 39.3432 136.327 39.1271C135.626 38.9143 134.683 39.1486 133.495 39.8395L132.357 40.5021L136.11 46.9573ZM130.77 37.7741L132.04 37.0357C132.989 36.4834 133.526 35.8949 133.65 35.2685C133.772 34.6495 133.51 33.7838 132.865 32.6764C132.288 31.6822 131.707 31.1095 131.13 30.9567C130.554 30.8039 129.76 31.0246 128.743 31.6159L127.582 32.2915L130.77 37.7741ZM134.118 51.9832L122.307 31.6725L128.388 28.1365C130.126 27.1259 131.658 26.7773 132.975 27.0948C134.295 27.406 135.443 28.407 136.419 30.0859C137.199 31.4275 137.599 32.592 137.61 33.5738C137.621 34.5555 137.255 35.3652 136.508 35.9979C137.529 35.5786 138.546 35.6199 139.551 36.1258C140.556 36.6311 141.445 37.5483 142.222 38.8854C143.476 41.0413 143.945 42.8831 143.633 44.4194C143.322 45.9557 142.211 47.2764 140.302 48.3866L134.118 51.9832ZM149.635 43.0003L139.827 21.6513L143.773 19.8389L147.621 28.2141L153.072 25.7096L149.225 17.3338L153.171 15.5209L162.979 36.871L159.033 38.6834L154.585 29.0023L149.134 31.5073L153.582 41.1879L149.635 43.0003ZM168.492 24.51L172.01 23.2922L167.017 14.5952L168.492 24.51ZM165.643 35.4801L162.958 11.5469L168.504 9.62756L181.233 30.0847L176.779 31.6261L173.755 26.4237L169.002 28.0692L169.865 34.0191L165.643 35.4801ZM184.5 29.3304L179.051 6.47629L183.306 5.46176L188.756 28.3159L184.5 29.3304ZM203.399 11.8321L205.211 11.5899C206.563 11.4088 207.477 11.0184 207.954 10.4129C208.425 9.81372 208.577 8.87439 208.406 7.59387C208.234 6.30371 207.866 5.44479 207.298 5.01077C206.732 4.57733 205.748 4.45679 204.344 4.64462L202.471 4.89536L203.399 11.8321ZM200.967 25.4911L197.85 2.20413L205.38 1.19583C207.676 0.88855 209.397 1.18393 210.541 2.07571C211.685 2.96863 212.415 4.58298 212.729 6.92108C213.037 9.21786 212.729 11.0031 211.805 12.2667C210.883 13.5359 209.317 14.3179 207.113 14.6133L203.95 15.0371L205.272 24.9151L200.967 25.4911ZM221.488 14.2998L225.21 14.1872L223.038 4.39624L221.488 14.2998ZM215.497 23.9204L220.074 0.276306L225.94 0.0992126L231.986 23.4218L227.275 23.5645L225.942 17.6971L220.914 17.8488L219.962 23.7857L215.497 23.9204ZM236.82 23.8032L238.276 4.23666L233.26 3.86377L233.547 0.000183105L247.942 1.07132L247.654 4.93381L242.638 4.56091L241.182 24.1281L236.82 23.8032ZM249.33 24.7516L253.538 1.63602L265.408 3.79758L264.709 7.63971L257.111 6.2562L256.138 11.6046L263.207 12.8919L262.541 16.5496L255.472 15.2628L254.313 21.6252L262.09 23.041L261.38 26.9449L249.33 24.7516ZM265.449 27.6403L272.088 5.10245L276.284 6.33826L270.775 25.0396L278.357 27.273L277.228 31.1095L265.449 27.6403ZM288.152 35.1876L297.141 13.481L301.182 15.1542L292.193 36.8608L288.152 35.1876ZM296.808 38.3496L308.028 17.7067L311.985 19.8581L309.512 37.2116L317.252 22.7202L320.875 24.6899L309.655 45.3322L305.739 43.204L308.187 25.8001L300.432 40.3193L296.808 38.3496ZM318.394 40.6248L322.004 43.1038L321.15 44.3487C320.333 45.5381 319.924 46.4565 319.925 47.0892C319.924 47.7263 320.292 48.2944 321.022 48.7957C321.786 49.3203 322.498 49.5251 323.162 49.4125C323.827 49.2999 324.417 48.8648 324.932 48.1133C325.33 47.5339 325.534 46.942 325.541 46.3337C325.549 45.7328 325.317 44.7838 324.842 43.4977L323.895 40.9214C323.059 38.7168 322.673 37.107 322.734 36.0884C322.796 35.0699 323.203 34.0163 323.952 32.9259C325.068 31.299 326.425 30.3541 328.024 30.0943C329.624 29.8346 331.27 30.2885 332.961 31.4496C334.76 32.6843 335.798 34.117 336.08 35.7574C336.365 37.3938 335.876 39.1288 334.614 40.9661C334.488 41.1505 334.39 41.292 334.318 41.3876C334.243 41.4883 334.175 41.5676 334.114 41.6389L330.688 39.2872L331.042 38.7722C331.764 37.7203 332.108 36.8518 332.077 36.1609C332.043 35.4745 331.632 34.8577 330.846 34.3179C330.267 33.9201 329.699 33.7826 329.135 33.8952C328.572 34.0073 328.08 34.3643 327.665 34.9703C327.104 35.7857 327.228 37.1969 328.029 39.2051L328.053 39.2532L329.115 41.9653C329.886 43.8779 330.236 45.4199 330.164 46.6019C330.094 47.7795 329.62 49.0136 328.733 50.306C327.524 52.0658 326.088 53.0821 324.425 53.3424C322.763 53.61 320.998 53.0996 319.13 51.8174C317.186 50.482 316.083 48.9865 315.82 47.3279C315.562 45.6722 316.14 43.8083 317.554 41.7475C317.702 41.5331 317.967 41.1845 318.342 40.7024L318.394 40.6248ZM331.06 60.3323L343.753 45.3701L339.918 42.1158L342.423 39.1616L353.43 48.4998L350.925 51.4536L347.089 48.1999L334.396 63.1621L331.06 60.3323ZM340.538 68.5722L356.618 51.4417L359.807 54.435L343.727 71.5656L340.538 68.5722ZM349.473 77.5823L364.25 64.6747L360.942 60.8869L363.86 58.3383L373.355 69.21L370.437 71.7585L367.128 67.9696L352.35 80.8766L349.473 77.5823ZM376.641 73.3429L379.184 76.9016L366.296 86.1114C364.822 87.165 363.952 88.0619 363.684 88.7975C363.416 89.5325 363.608 90.3558 364.265 91.2748C364.916 92.1864 365.634 92.6266 366.415 92.6C367.196 92.5728 368.335 92.0273 369.835 90.9556L382.672 81.782L385.179 85.2903L371.982 94.7213C370.698 95.638 369.71 96.2356 369.018 96.5117C368.322 96.7918 367.633 96.9197 366.938 96.897C365.902 96.8631 364.919 96.5423 363.981 95.9385C363.044 95.3347 362.159 94.4559 361.333 93.2999C359.771 91.1135 359.147 89.236 359.45 87.6629C359.757 86.0865 361.084 84.4597 363.444 82.7734L376.641 73.3429ZM370.446 105.965L387.43 96.1405L384.912 91.7869L388.266 89.8466L395.493 102.342L392.139 104.281L389.62 99.9272L372.637 109.751L370.446 105.965ZM376.555 116.91L397.917 107.129L402.939 118.099L399.388 119.725L396.173 112.704L391.231 114.967L394.222 121.501L390.842 123.049L387.85 116.515L381.97 119.207L385.26 126.394L381.652 128.046L376.555 116.91ZM398.346 139.8C394.637 140.899 392.369 141.804 391.538 142.522C390.703 143.241 390.462 144.187 390.808 145.355C391.148 146.504 391.851 147.154 392.92 147.299C393.984 147.445 396.393 146.961 400.138 145.852C403.883 144.744 406.166 143.834 406.996 143.121C407.823 142.41 408.068 141.474 407.726 140.315C407.382 139.156 406.668 138.505 405.587 138.358C404.501 138.212 402.092 138.692 398.346 139.8ZM397.083 135.515C399.47 134.809 401.415 134.352 402.909 134.154C404.404 133.956 405.582 133.993 406.447 134.253C407.664 134.604 408.623 135.167 409.332 135.946C410.038 136.719 410.611 137.848 411.051 139.331C411.49 140.814 411.623 142.072 411.451 143.106C411.281 144.144 410.784 145.145 409.957 146.112C409.354 146.806 408.378 147.475 407.016 148.117C405.658 148.758 403.793 149.43 401.411 150.135C399.039 150.837 397.109 151.288 395.615 151.486C394.12 151.684 392.933 151.656 392.052 151.412C390.832 151.051 389.871 150.483 389.162 149.704C388.456 148.93 387.882 147.802 387.443 146.319C387.004 144.836 386.871 143.577 387.043 142.544C387.213 141.505 387.712 140.51 388.541 139.553C389.125 138.865 390.093 138.192 391.455 137.544C392.817 136.897 394.696 136.221 397.083 135.515ZM391.072 157.564L414.128 153.046L416.489 165.095L412.718 165.834L411.197 158.077L405.74 159.147L407.175 166.47L403.496 167.19L402.061 159.868L391.912 161.856L391.072 157.564ZM394.88 184.609L414.474 183.598L414.216 178.574L418.084 178.374L418.828 192.79L414.96 192.99L414.7 187.966L395.106 188.977L394.88 184.609ZM395.768 197.121L419.24 198.148L418.713 210.201L414.811 210.03L415.149 202.316L409.718 202.078L409.403 209.257L405.689 209.095L406.003 201.916L399.542 201.633L399.196 209.53L395.232 209.357L395.768 197.121ZM402.164 223.899L401.573 228.106C401.475 228.092 401.325 228.077 401.127 228.06C400.93 228.043 400.775 228.026 400.661 228.01C397.975 227.632 396.059 226.785 394.914 225.467C393.768 224.155 393.362 222.331 393.689 219.995C393.845 218.886 394.123 217.952 394.519 217.198C394.919 216.445 395.464 215.822 396.148 215.334C397.062 214.664 398.249 214.262 399.702 214.141C401.161 214.014 403.638 214.199 407.144 214.691C409.542 215.028 411.43 215.394 412.817 215.783C414.208 216.173 415.219 216.615 415.858 217.119C416.837 217.894 417.502 218.775 417.851 219.771C418.2 220.767 418.272 221.981 418.069 223.425C417.738 225.781 416.883 227.412 415.505 228.312C414.122 229.212 412.071 229.476 409.353 229.104L409.943 224.897L410.5 224.975C411.759 225.152 412.726 225.078 413.402 224.757C414.078 224.436 414.474 223.861 414.591 223.026C414.738 221.984 414.409 221.217 413.606 220.721C412.803 220.224 410.463 219.701 406.585 219.156C402.398 218.568 399.819 218.395 398.865 218.635C397.907 218.873 397.353 219.516 397.208 220.552C397.072 221.517 397.333 222.242 397.99 222.729C398.644 223.21 399.932 223.585 401.845 223.854L402.164 223.899ZM392.969 231.339L415.814 236.827L414.8 241.05L405.839 238.897L404.437 244.73L413.399 246.883L412.384 251.106L389.539 245.617L390.554 241.394L400.913 243.883L402.315 238.051L391.955 235.562L392.969 231.339ZM388.488 250.51L410.699 258.169L409.232 262.427L391.708 262.851L407.278 268.092L405.934 271.992L383.722 264.333L385.175 260.119L402.744 259.661L387.144 254.409L388.488 250.51ZM391.244 277.376C387.725 275.771 385.419 274.964 384.322 274.961C383.219 274.956 382.416 275.512 381.911 276.62C381.414 277.71 381.517 278.661 382.229 279.473C382.935 280.281 385.071 281.497 388.624 283.118C392.177 284.739 394.497 285.551 395.592 285.559C396.683 285.564 397.482 285.019 397.983 283.92C398.484 282.821 398.373 281.86 397.655 281.04C396.93 280.218 394.797 278.998 391.244 277.376ZM393.104 273.314C395.368 274.347 397.135 275.279 398.392 276.111C399.65 276.942 400.515 277.744 400.997 278.507C401.685 279.571 402.04 280.625 402.063 281.677C402.089 282.725 401.78 283.953 401.138 285.359C400.496 286.766 399.771 287.803 398.963 288.471C398.152 289.143 397.121 289.57 395.863 289.758C394.951 289.886 393.777 289.75 392.327 289.341C390.882 288.933 389.034 288.216 386.774 287.185C384.524 286.158 382.771 285.232 381.514 284.401C380.257 283.569 379.379 282.769 378.875 282.006C378.191 280.933 377.839 279.874 377.815 278.821C377.79 277.773 378.098 276.546 378.74 275.138C379.382 273.732 380.107 272.695 380.916 272.027C381.725 271.356 382.755 270.932 384.008 270.755C384.901 270.618 386.073 270.747 387.525 271.152C388.978 271.557 390.84 272.281 393.104 273.314ZM374.031 286.04L394.377 297.789L392.189 301.577L375.307 291.829L371.353 298.673L367.891 296.674L374.031 286.04ZM373.999 309.307C370.848 307.063 368.736 305.836 367.659 305.625C366.578 305.411 365.684 305.804 364.978 306.797C364.283 307.773 364.204 308.727 364.749 309.658C365.29 310.586 367.157 312.184 370.338 314.449C373.52 316.714 375.643 317.951 376.718 318.166C377.787 318.379 378.676 317.994 379.375 317.009C380.076 316.025 380.149 315.061 379.599 314.119C379.044 313.174 377.181 311.572 373.999 309.307ZM376.594 305.671C378.622 307.114 380.18 308.365 381.258 309.419C382.335 310.474 383.032 311.424 383.36 312.265C383.834 313.44 383.983 314.543 383.806 315.58C383.633 316.614 383.098 317.761 382.201 319.02C381.303 320.28 380.396 321.161 379.476 321.663C378.553 322.17 377.459 322.395 376.187 322.34C375.269 322.293 374.141 321.938 372.795 321.26C371.454 320.587 369.775 319.532 367.752 318.092C365.736 316.657 364.191 315.416 363.114 314.362C362.037 313.307 361.327 312.354 360.976 311.51C360.508 310.327 360.363 309.22 360.539 308.182C360.713 307.149 361.248 306.002 362.145 304.742C363.042 303.482 363.95 302.601 364.87 302.1C365.793 301.593 366.884 301.372 368.148 301.436C369.051 301.471 370.177 301.818 371.527 302.491C372.876 303.164 374.566 304.228 376.594 305.671ZM347.835 323.67L350.003 325.12C349.443 324.049 349.234 323.056 349.374 322.145C349.516 321.242 350.03 320.274 350.922 319.243C352.533 317.38 354.369 316.682 356.429 317.142C358.493 317.599 361.403 319.455 365.156 322.702C366.909 324.218 368.236 325.525 369.135 326.619C370.037 327.716 370.607 328.705 370.855 329.588C371.162 330.659 371.155 331.726 370.836 332.779C370.517 333.832 369.865 334.928 368.887 336.059C367.239 337.964 365.573 338.982 363.888 339.107C362.206 339.228 360.416 338.472 358.514 336.826L358.065 336.439L360.743 333.343L360.928 333.503C361.987 334.42 362.961 334.918 363.849 334.99C364.728 335.063 365.512 334.707 366.189 333.924C367.024 332.959 367.22 331.984 366.79 330.993C366.356 329.999 364.552 328.128 361.377 325.381C358.87 323.212 357.045 321.93 355.905 321.537C354.766 321.143 353.816 321.389 353.053 322.27C352.294 323.149 352.055 324.03 352.333 324.925C352.608 325.817 353.464 326.881 354.898 328.121L355.508 328.649L357.491 326.358L360.326 328.811L355.584 334.293L345.896 325.912L347.835 323.67ZM340.247 331.826L347.133 339.024L360.937 344.547L357.437 347.896L348.766 343.969L352.336 352.777L348.927 356.038L343.95 342.069L337.065 334.872L340.247 331.826Z" fill="white"/>
<path fill-rule="evenodd" clip-rule="evenodd" d="M223.626 159.592C247.572 159.592 266.985 179.005 266.985 202.952C266.985 226.898 247.572 246.311 223.626 246.311C199.679 246.311 180.267 226.898 180.267 202.952C180.267 179.005 199.679 159.592 223.626 159.592Z" fill="white"/>
<path d="M206.728 453.819L204.167 450.973H229.836L232.397 453.819H227.56V479.431L224.144 477.439V469.755C223.158 470.591 222.153 471.217 221.128 471.633C220.104 472.089 219.117 472.316 218.168 472.316C215.778 472.241 213.634 471.274 211.737 469.413C209.878 467.517 208.701 465.164 208.208 462.356C210.257 462.356 212.002 461.996 213.444 461.275C214.886 460.553 215.607 459.681 215.607 458.657C215.607 457.974 215.418 457.214 215.038 456.38C214.621 455.545 214.051 454.691 213.33 453.819H206.728ZM216.461 468.902C218.131 468.902 219.648 468.541 221.014 467.82C222.38 467.099 223.424 466.132 224.144 464.917V453.819H215.607C216.707 454.881 217.543 455.944 218.111 457.006C218.718 458.106 219.022 459.131 219.022 460.079C219.022 461.484 218.301 462.698 216.859 463.722C215.418 464.709 213.672 465.202 211.623 465.202C211.623 466.227 212.097 467.099 213.046 467.82C213.995 468.541 215.133 468.902 216.461 468.902ZM222.721 440.159L225.966 437.028L229.267 440.159L225.966 443.289L222.721 440.159ZM231.544 453.819L228.982 450.973H252.888L255.449 453.819H250.611V479.431L247.196 477.439V468.902L236.381 476.301L234.39 473.455L247.196 465.487C246.285 464.386 245.204 463.551 243.952 462.982C242.699 462.375 241.41 462.072 240.081 462.072C239.246 462.072 238.469 462.185 237.748 462.413C236.989 462.679 236.344 463.039 235.813 463.495L232.967 460.079C234.598 459.131 236.685 458.657 239.228 458.657C240.48 458.657 241.789 459.074 243.155 459.909C244.559 460.782 245.906 461.977 247.196 463.495V453.819H231.544ZM254.31 453.819L251.749 450.973H259.889C259.053 450.138 258.428 449.189 258.011 448.127C257.555 447.103 257.328 446.059 257.328 444.997C257.328 442.871 258.048 441.07 259.49 439.589C260.932 438.072 262.678 437.313 264.727 437.313C266.851 437.313 269.394 438.356 272.353 440.443C275.275 442.531 278.33 445.471 281.517 449.265L280.379 450.119C277.874 447.159 275.389 444.845 272.922 443.175C270.418 441.544 268.16 440.728 266.149 440.728C264.669 440.728 263.399 441.278 262.336 442.378C261.273 443.517 260.743 444.864 260.743 446.42C260.743 447.444 260.875 448.355 261.141 449.152C261.368 449.91 261.71 450.518 262.165 450.973H264.727L267.288 453.819H262.45V479.431L259.035 477.439V453.819H254.31ZM266.149 453.819L263.588 450.973H289.827L292.388 453.819H287.55V479.431L284.135 477.439V470.04C283.187 471.027 282.181 471.805 281.118 472.374C280.094 472.905 279.108 473.17 278.159 473.17C275.693 473.17 273.416 472.221 271.329 470.325C269.242 468.389 268.198 466.302 268.198 464.064C268.198 462.584 268.806 461.313 270.02 460.25C271.234 459.188 272.714 458.657 274.459 458.657C276.243 458.657 277.988 459.074 279.696 459.909C281.365 460.782 282.845 461.977 284.135 463.495V453.819H266.149ZM276.167 469.755C277.647 469.755 279.089 469.357 280.492 468.56C281.896 467.763 283.111 466.644 284.135 465.202C283.187 464.216 282.067 463.438 280.777 462.868C279.487 462.338 278.14 462.072 276.736 462.072C275.332 462.072 274.118 462.489 273.093 463.324C272.107 464.158 271.614 465.164 271.614 466.34C271.614 467.289 272.05 468.086 272.922 468.73C273.833 469.413 274.915 469.755 276.167 469.755ZM291.25 453.819L288.688 450.973H318.911L321.472 453.819H316.634V479.431L313.22 477.439V473.455C312.157 474.707 310.924 475.694 309.521 476.415C308.154 477.098 306.731 477.439 305.251 477.439C302.936 477.439 300.83 476.699 298.933 475.22C297.074 473.777 296.144 472.146 296.144 470.325C296.144 469.603 296.353 468.92 296.771 468.276C297.188 467.669 297.738 467.214 298.421 466.91C296.866 466.34 295.632 465.544 294.721 464.519C293.773 463.457 293.299 462.356 293.299 461.218C293.299 460.118 293.66 459.188 294.38 458.429C295.101 457.632 295.974 457.234 296.998 457.234H303.543V453.819H291.25ZM303.543 474.309C305.517 474.309 307.376 473.797 309.122 472.772C310.829 471.748 312.195 470.363 313.22 468.617V453.819H306.958V460.649H299.559C298.763 460.649 298.098 460.877 297.567 461.332C296.998 461.749 296.714 462.28 296.714 462.925C296.714 463.722 297.15 464.386 298.022 464.917C298.933 465.487 300.015 465.771 301.267 465.771C302.101 465.468 303.051 465.316 304.113 465.316C304.986 465.316 305.84 465.468 306.674 465.771L307.812 469.186C306.978 468.883 305.745 468.73 304.113 468.73C302.86 468.73 301.779 469.054 300.869 469.698C299.996 470.344 299.559 471.121 299.559 472.032C299.559 472.678 299.958 473.209 300.755 473.626C301.514 474.081 302.443 474.309 303.543 474.309ZM317.773 450.973H330.75L333.312 453.819H328.473V479.431L325.058 477.439V453.819H320.334L317.773 450.973ZM349.248 453.819L346.687 450.973H370.023L372.584 453.819H367.746V479.431L364.331 477.439V468.332C363.686 468.902 362.965 469.319 362.168 469.585C361.372 469.888 360.574 470.04 359.778 470.04C358.26 470.04 356.666 469.262 354.997 467.706C353.328 466.151 352.265 464.462 351.809 462.641V453.819H349.248ZM357.501 467.194C358.867 467.194 360.157 466.891 361.372 466.283C362.548 465.676 363.534 464.842 364.331 463.779V453.819H355.224V464.064C355.224 464.936 355.452 465.676 355.907 466.283C356.325 466.891 356.856 467.194 357.501 467.194ZM371.446 453.819L368.885 450.973H385.789L388.35 453.819H381.235V464.064C381.235 465.202 381.008 466.265 380.552 467.251C380.097 468.238 379.471 469.072 378.674 469.755L387.212 478.293L385.504 480L373.552 466.91C373.362 466.72 373.23 466.473 373.153 466.17C373.04 465.866 372.982 465.544 372.982 465.202C372.982 464.557 373.172 464.026 373.552 463.608C373.969 463.153 374.443 462.925 374.975 462.925C375.24 462.925 375.563 463.001 375.942 463.153C376.322 463.305 376.758 463.513 377.251 463.779C377.441 463.513 377.574 463.172 377.65 462.755C377.763 462.299 377.82 461.787 377.82 461.218V453.819H371.446ZM384.65 450.973H397.628L400.189 453.819H395.351V479.431L391.936 477.439V453.819H387.212L384.65 450.973ZM399.05 453.819L396.489 450.973H404.628C403.793 450.138 403.167 449.189 402.75 448.127C402.295 447.103 402.067 446.059 402.067 444.997C402.067 442.871 402.788 441.07 404.23 439.589C405.672 438.072 407.417 437.313 409.466 437.313C411.591 437.313 414.133 438.356 417.093 440.443C420.015 442.531 423.069 445.471 426.257 449.265L425.119 450.119C422.614 447.159 420.129 444.845 417.662 443.175C415.158 441.544 412.9 440.728 410.889 440.728C409.409 440.728 408.138 441.278 407.076 442.378C406.013 443.517 405.482 444.864 405.482 446.42C405.482 447.444 405.615 448.355 405.88 449.152C406.108 449.91 406.45 450.518 406.905 450.973H409.466L412.027 453.819H407.189V479.431L403.774 477.439V453.819H399.05ZM410.889 453.819L408.328 450.973H434.566L437.128 453.819H432.29V479.431L428.875 477.439V470.04C427.927 471.027 426.921 471.805 425.858 472.374C424.834 472.905 423.847 473.17 422.898 473.17C420.432 473.17 418.155 472.221 416.069 470.325C413.982 468.389 412.938 466.302 412.938 464.064C412.938 462.584 413.545 461.313 414.759 460.25C415.974 459.188 417.454 458.657 419.199 458.657C420.982 458.657 422.728 459.074 424.435 459.909C426.105 460.782 427.585 461.977 428.875 463.495V453.819H410.889ZM420.906 469.755C422.387 469.755 423.828 469.357 425.232 468.56C426.636 467.763 427.85 466.644 428.875 465.202C427.927 464.216 426.807 463.438 425.517 462.868C424.226 462.338 422.88 462.072 421.475 462.072C420.072 462.072 418.858 462.489 417.833 463.324C416.847 464.158 416.353 465.164 416.353 466.34C416.353 467.289 416.79 468.086 417.662 468.73C418.573 469.413 419.654 469.755 420.906 469.755ZM435.989 453.819L433.428 450.973H463.652L466.213 453.819H461.375V479.431L457.96 477.439V473.455C456.897 474.707 455.664 475.694 454.26 476.415C452.894 477.098 451.471 477.439 449.991 477.439C447.676 477.439 445.57 476.699 443.674 475.22C441.814 473.777 440.884 472.146 440.884 470.325C440.884 469.603 441.093 468.92 441.51 468.276C441.928 467.669 442.478 467.214 443.161 466.91C441.605 466.34 440.372 465.544 439.461 464.519C438.513 463.457 438.039 462.356 438.039 461.218C438.039 460.118 438.399 459.188 439.12 458.429C439.841 457.632 440.713 457.234 441.738 457.234H448.283V453.819H435.989ZM448.283 474.309C450.257 474.309 452.116 473.797 453.861 472.772C455.569 471.748 456.935 470.363 457.96 468.617V453.819H451.698V460.649H444.299C443.502 460.649 442.838 460.877 442.307 461.332C441.738 461.749 441.453 462.28 441.453 462.925C441.453 463.722 441.89 464.386 442.762 464.917C443.674 465.487 444.754 465.771 446.007 465.771C446.841 465.468 447.79 465.316 448.852 465.316C449.725 465.316 450.579 465.468 451.415 465.771L452.552 469.186C451.718 468.883 450.484 468.73 448.852 468.73C447.6 468.73 446.519 469.054 445.609 469.698C444.736 470.344 444.299 471.121 444.299 472.032C444.299 472.678 444.698 473.209 445.495 473.626C446.253 474.081 447.183 474.309 448.283 474.309ZM462.513 450.973H475.49L478.051 453.819H473.213V479.431L469.798 477.439V453.819H465.074L462.513 450.973Z" fill="white"/>
</svg>
