<svg xmlns="http://www.w3.org/2000/svg" width="305" height="266" fill="none" viewBox="0 0 305 266"><path stroke="#000" d="M57 71 77 .5h153c18.8.3 59.3 11.9 70.5 55.5 14 54.5-18 87-35 101.5S222.5 179 212 180c-8.4.8-65.5.3-93 0-4.9.7-16.4 8.6-24 35s-4.5 36.3-2 38H13.5c11.8-9.8 38.7-33 51.5-47 16-17.5 67-61 80.5-63 18.5 0 74.5 6 86.5-23.5"/><path stroke="#000" stroke-width=".5" d="M42.5 142c5.6-4.2 36.6-32.3 47-27.5.5.2 8.1-7 6-7"/><path stroke="#000" stroke-width=".5" d="M90.5 101.5c2-2 11.1-7.2 15.5-9.5q0 .8 3 5c-1.6-.4-11.7 8.5-16.5 13-1.5-2-4-6.5-2-8.5Zm11-23c.4-1.2 4.5 1.2 6.5 2.5l2.5 9-16 6-3-4.5c2.3-1.8 6.9-5.8 6.5-7-.5-1.5 3-4.5 3.5-6Z"/><path stroke="#000" d="M127.5 46C104.3 44.8 70.8 62.8 57 72l-1.5 4c-1 2.8-1.6 4.1-2.5 7 3.5.5 67-71 88.5 1.5C140 88.8 30.8 143 25 169 9.8 218.3 3.4 247.4 7.5 254c49.5-52 65-62 111-98s74.5-43 89-45 28.5 6.5 28 20c25-28-3.5-51-18.5-59-4-17.5-26-27.5-50-33s-60 1-62.5 2-1 1-.5 1 16.5 1 23.5 4Z"/><path stroke="#000" stroke-width="2" d="M228.5 99.5C218 96 211 92.8 208 88"/><path stroke="#000" d="M188.5 101c-20.5 5-48.2 22.6-85 67C44 215 26 238 .5 265.5c5.5-12.5 4-22 6-28"/><g filter="url(#a)"><path stroke="#000" stroke-width="3" d="M67 144c14-16 53.5-41.5 73.5-55.5 9.1-5 27.7-4 16.5 12-59.5 40.5-88.5 76-106 106-1-14.5 8.8-54.4 16-62.5Z" shape-rendering="crispEdges"/></g><path stroke="#000" stroke-width=".5" d="M53 83.5C71.4 67 89.9 56 99 54l7.8 6c-17.3 7-16.3 8-18.8 5-7 3-25.5 10-35 18.5Z"/><path stroke="#000" stroke-width="2" d="M231.5 103.5c-28.5 4.5-52-2-59-15.5"/><g filter="url(#b)"><path stroke="#000" stroke-width="3" d="M108.5 76.5C103.3 70.7 89 55.2 71 34c10.8 9.6 47.5 13.7 64.5 14.5 18.5-2 18 0 28.5 3.5"/></g><path stroke="#000" stroke-width=".5" d="m110.5 91-4.5 1 4.5 5.5L116 95"/><g filter="url(#c)"><path stroke="#000" d="M135.5 48.5c-17-.8-53.7-4.9-64.5-14.5 18 21.2 30.5 21.5 38 36.5 4.5-4 17.5-9.5 28 2"/></g><g filter="url(#d)"><path stroke="#000" stroke-width="3" d="M151 56c5.5-.5 8-.5 10.5-1 7-5-6.6-7.6 11-6S206 75.3 212 87.5c-8.4 1.8-27.3 4.8-36.5 2a71 71 0 0 1-24-14.5c1.1-.3 3.5-3.8-.5-19Z" shape-rendering="crispEdges"/></g><path stroke="#000" stroke-linejoin="round" d="M161 52.5c.6 11.8 10.6 35.1 45 33.5 4-22-33-42.5-45-33.5Z"/><path stroke="#000" stroke-linejoin="round" stroke-width="3" d="M186 65c-6.4-4.2-12.5-7-19.5-6.5 4 13.5 9 8 17 16 4.3 4.3 12.3 2.5 14 2C195.6 75 192 69 186 65Z"/><g filter="url(#e)"><path stroke="#000" stroke-width="3" d="M122.5 68.5c7.7 0 14 6 14 13.5s-6.3 13.5-14 13.5-14-6-14-13.5 6.2-13.5 14-13.5Z" shape-rendering="crispEdges"/></g><path stroke="#000" stroke-width=".5" d="M122.5 71.3A11 11 0 0 1 133.7 82c0 6-5 10.8-11.2 10.8A11 11 0 0 1 111.2 82c0-6 5-10.7 11.3-10.7Z"/><g filter="url(#f)"><path stroke="#000" stroke-width=".5" d="M122.5 74.3c4.5 0 8.2 3.4 8.2 7.7s-3.7 7.8-8.2 7.8c-4.6 0-8.3-3.5-8.3-7.8s3.7-7.7 8.3-7.7Z" shape-rendering="crispEdges"/></g><path fill="#000" d="m133.4 47.9-2 .2.5 1.3c1.4 3.4 3.6 6.3 4 9.6v.4h.5l10.6 2.1-1.1-.4-9.3-2.6.3.5c-.2-3.9-2.3-7-3.3-10.2zM88.9 42 87 41q-.4.8-.2 1.3c.1 1.4.3 2 0 2.8l-.7.8 1.1.3c2.4.5 5 1.7 7.6 2.6h.3v-.3c-.1-1.3-.3-2.6.6-3.5l.7-.5-.8.4c-1 .8-1 2.4-1 3.6l.3-.3c-2.4-1-4.6-2.6-7.4-3.4l.5 1.1c1-1.1.6-2.8.7-3.6zm48.4 43.8 1.4 1.4.1-.1a28 28 0 0 1 10.6-1.8 28 28 0 0 0-11.3 0q-.2 0-.8.5"/><path stroke="#000" d="m128 98 13.5 14-4 3.5L123 101l-6.5 4.5L130 121l-5.5 4-14-16-6.5 5 14.5 16-6 5.5-16-16L91 124"/><path stroke="#000" stroke-width="2" d="m53 90-4 14c10.5-10.5 25-17 30-15.5-2-4.5 4.5-19.5 9-21C75 73 58 79 53 90Z"/><g filter="url(#g)"><path stroke="#000" stroke-width="2" d="M36 149.5 47 112l24-18 20-2.5 3.5 4.5-19 16c-1.7.8-7 2.4-10.5 10-6.8 1.6-21.9 19.7-29 27.5Z" shape-rendering="crispEdges"/></g><path stroke="#000" stroke-width=".5" d="m71 94 4.5 18"/><path stroke="#000" stroke-width="2" d="M219 77.5c-3.2-1.2-11-2.8-13-1.5.8 1.8 7 9.7 5.5 12.5 25.5 9 27.5 32 25 41C257.5 98 223 79 219 77.5Z"/><defs><filter id="a" width="116.6" height="131.1" x="47.4" y="84.3" color-interpolation-filters="sRGB" filterUnits="userSpaceOnUse"><feFlood flood-opacity="0" result="BackgroundImageFix"/><feColorMatrix in="SourceAlpha" result="hardAlpha" values="0 0 0 0 0 0 0 0 0 0 0 0 0 0 0 0 0 0 127 0"/><feOffset dy="2"/><feGaussianBlur stdDeviation="1"/><feComposite in2="hardAlpha" operator="out"/><feColorMatrix values="0 0 0 0 0 0 0 0 0 0 0 0 0 0 0 0 0 0 0.25 0"/><feBlend in2="BackgroundImageFix" result="effect1_dropShadow_249_637"/><feBlend in="SourceGraphic" in2="effect1_dropShadow_249_637" result="shape"/></filter><filter id="b" width="98.6" height="48.6" x="67.8" y="32.9" color-interpolation-filters="sRGB" filterUnits="userSpaceOnUse"><feFlood flood-opacity="0" result="BackgroundImageFix"/><feColorMatrix in="SourceAlpha" result="hardAlpha" values="0 0 0 0 0 0 0 0 0 0 0 0 0 0 0 0 0 0 127 0"/><feOffset dy="2"/><feGaussianBlur stdDeviation="1"/><feComposite in2="hardAlpha" operator="out"/><feColorMatrix values="0 0 0 0 0 0 0 0 0 0 0 0 0 0 0 0 0 0 0.25 0"/><feBlend in2="BackgroundImageFix" result="effect1_dropShadow_249_637"/><feBlend in="SourceGraphic" in2="effect1_dropShadow_249_637" result="shape"/></filter><filter id="c" width="70.8" height="43.2" x="68.6" y="33.6" color-interpolation-filters="sRGB" filterUnits="userSpaceOnUse"><feFlood flood-opacity="0" result="BackgroundImageFix"/><feColorMatrix in="SourceAlpha" result="hardAlpha" values="0 0 0 0 0 0 0 0 0 0 0 0 0 0 0 0 0 0 127 0"/><feOffset dy="2"/><feGaussianBlur stdDeviation="1"/><feComposite in2="hardAlpha" operator="out"/><feColorMatrix values="0 0 0 0 0 0 0 0 0 0 0 0 0 0 0 0 0 0 0.25 0"/><feBlend in2="BackgroundImageFix" result="effect1_dropShadow_249_637"/><feBlend in="SourceGraphic" in2="effect1_dropShadow_249_637" result="shape"/></filter><filter id="d" width="67.5" height="48.1" x="147.6" y="47" color-interpolation-filters="sRGB" filterUnits="userSpaceOnUse"><feFlood flood-opacity="0" result="BackgroundImageFix"/><feColorMatrix in="SourceAlpha" result="hardAlpha" values="0 0 0 0 0 0 0 0 0 0 0 0 0 0 0 0 0 0 127 0"/><feOffset dy="2"/><feGaussianBlur stdDeviation=".5"/><feComposite in2="hardAlpha" operator="out"/><feColorMatrix values="0 0 0 0 0 0 0 0 0 0 0 0 0 0 0 0 0 0 0.25 0"/><feBlend in2="BackgroundImageFix" result="effect1_dropShadow_249_637"/><feBlend in="SourceGraphic" in2="effect1_dropShadow_249_637" result="shape"/></filter><filter id="e" width="35" height="34" x="105" y="67" color-interpolation-filters="sRGB" filterUnits="userSpaceOnUse"><feFlood flood-opacity="0" result="BackgroundImageFix"/><feColorMatrix in="SourceAlpha" result="hardAlpha" values="0 0 0 0 0 0 0 0 0 0 0 0 0 0 0 0 0 0 127 0"/><feOffset dy="2"/><feGaussianBlur stdDeviation="1"/><feComposite in2="hardAlpha" operator="out"/><feColorMatrix values="0 0 0 0 0 0 0 0 0 0 0 0 0 0 0 0 0 0 0.25 0"/><feBlend in2="BackgroundImageFix" result="effect1_dropShadow_249_637"/><feBlend in="SourceGraphic" in2="effect1_dropShadow_249_637" result="shape"/></filter><filter id="f" width="23" height="22" x="111" y="72" color-interpolation-filters="sRGB" filterUnits="userSpaceOnUse"><feFlood flood-opacity="0" result="BackgroundImageFix"/><feColorMatrix in="SourceAlpha" result="hardAlpha" values="0 0 0 0 0 0 0 0 0 0 0 0 0 0 0 0 0 0 127 0"/><feMorphology in="SourceAlpha" operator="dilate" radius="1" result="effect1_dropShadow_249_637"/><feOffset dy="1"/><feGaussianBlur stdDeviation="1"/><feComposite in2="hardAlpha" operator="out"/><feColorMatrix values="0 0 0 0 0 0 0 0 0 0 0 0 0 0 0 0 0 0 0.3 0"/><feBlend in2="BackgroundImageFix" result="effect1_dropShadow_249_637"/><feBlend in="SourceGraphic" in2="effect1_dropShadow_249_637" result="shape"/></filter><filter id="g" width="62.8" height="61.7" x="34" y="90.4" color-interpolation-filters="sRGB" filterUnits="userSpaceOnUse"><feFlood flood-opacity="0" result="BackgroundImageFix"/><feColorMatrix in="SourceAlpha" result="hardAlpha" values="0 0 0 0 0 0 0 0 0 0 0 0 0 0 0 0 0 0 127 0"/><feOffset dy="1"/><feGaussianBlur stdDeviation=".5"/><feComposite in2="hardAlpha" operator="out"/><feColorMatrix values="0 0 0 0 0 0 0 0 0 0 0 0 0 0 0 0 0 0 0.25 0"/><feBlend in2="BackgroundImageFix" result="effect1_dropShadow_249_637"/><feBlend in="SourceGraphic" in2="effect1_dropShadow_249_637" result="shape"/></filter></defs></svg>